<?xml version="1.0" encoding="utf-8"?>
<svg width="100%" height="100%" viewBox="0 0 2843 2394" version="1.1" style="fill-rule:evenodd;clip-rule:evenodd;stroke-linejoin:round;stroke-miterlimit:2;" xmlns="http://www.w3.org/2000/svg">
  <rect id="Artboard1" x="0" y="0" width="1317.16" height="2393.22" style="fill:none;"/>
  <clipPath id="_clip1">
    <rect id="Artboard11" x="0" y="0" width="1317.16" height="2393.22"/>
  </clipPath>
  <g clip-path="url(#_clip1)">
    <g>
      <path d="M842.173,15.096c14.25,8.844 23.312,24.406 29.406,39.688c12.562,33.218 4.812,70.312 -10.094,101.406c-25.781,53.406 -68.437,98.031 -119.125,128.469c25.875,31.25 39.5,75.468 25.063,114.687c1.625,1.063 3.187,2.188 4.781,3.313c0.875,0.656 2.656,1.937 3.531,2.593c12.438,6.688 26.875,7.407 40.156,11.688c12.594,4 25.5,7.031 38.782,7.531c44.906,15.125 86.937,38.281 126.687,63.969c25.656,17.437 51.281,35.531 73.219,57.5c10.625,18.219 25.75,33.969 44.281,44.219c25.344,24.812 46.344,53.875 67.125,82.593c36.844,55.282 70.156,113.813 91.75,176.782c0.219,21.781 10.219,41.468 15.75,62.093c21.813,76.875 34.844,156.313 38.125,236.157c-0.437,40.687 1.969,81.5 -2.625,122c-4.656,55.437 -13.344,110.531 -26.125,164.687c-11.906,44.5 -25.844,88.563 -43.437,131.188c-7.657,19.468 -20.625,37.156 -22.813,58.531c-12.187,28.625 -30.062,54.656 -47.156,80.625c-57.75,84.062 -134.563,155.156 -223.5,205.156c-3.281,1.719 -6.531,3.719 -10.188,4.531c-20.75,1.5 -37.593,14.625 -56.625,21.5c-57.718,22.344 -118.625,37.313 -180.531,41.125c-52.031,3.782 -104.437,-0.437 -155.625,-10.125c-38.75,-7 -76.687,-18.406 -112.687,-34.25c-10.032,-4.562 -20.782,-7.062 -31.594,-8.718c-82.125,-37.907 -153.344,-97.594 -210.5,-167.344c-39.563,-48.75 -73.781,-102 -101,-158.563c-23.813,-53.031 -44.938,-107.75 -57.688,-164.531c2.5,-25.031 -7,-48.781 -10.343,-73.219c-7.282,-46.5 -12.657,-93.5 -12.532,-140.625c-0.187,-43.718 -1.093,-87.593 3.688,-131.125c4.25,-46.625 13.25,-92.687 24.125,-138.187c4.781,-21 14.5,-41.063 14.062,-63c2.188,-11.594 7.063,-22.469 10.844,-33.563c42.031,-109.75 106.5,-211.343 190.563,-293.687c51.187,-49.875 110.843,-91.969 176.843,-119.719c18.282,-10.281 38.594,-16.156 58.344,-22.937c20.156,-5.844 40.313,-12.344 61.25,-14.782c0.188,-0.812 0.563,-2.437 0.75,-3.281c3.031,-17.656 -1.375,-35.687 2.25,-53.312c2.219,-11.282 4.344,-22.625 5.625,-34.063c13.594,-31.031 44.813,-52.469 77.531,-59.062c2.969,-65.407 21,-131.344 59.313,-185.125c15.469,-20.657 33.437,-40.813 56.625,-52.813c27.062,-18.875 67.312,-21.344 93.719,0Zm-250.438,319.25c-8.437,18.594 -8.437,40.469 -0.062,59.094l0.093,2.531l-2.75,0.5c25.469,6.094 51.219,-3.187 76.938,-0.594c6.5,-0.468 15.375,2.875 19.531,-4.031c13.094,-0.031 26.063,1.719 39.063,3.031c5.093,-15.5 7.281,-32.125 2.281,-47.937c-3.375,-15.188 -13.625,-27.75 -25.094,-37.75c-4.344,5.906 -8.156,12.562 -14.469,16.625c-13.75,9.031 -33.187,6.312 -45.125,-4.5c-6.968,-6.188 -7.531,-16.094 -9.125,-24.625c-17.937,6.531 -34.437,19.375 -41.281,37.656Zm-10.875,99.844c-14.969,2.594 -30.906,3.094 -44.25,11.187c1.906,0.063 5.688,0.125 7.594,0.157c-3.875,1 -7.594,2.468 -11.125,4.281c-24.5,4.5 -48.313,12.594 -71.313,22c-56.562,21 -107.968,54.469 -154,93.187c-65.968,57.157 -120.593,126.969 -161.968,203.75c-9.875,18.563 -20.563,36.844 -27.938,56.594c-9.594,20.094 -18.406,40.719 -24.812,62.063c-10.188,23.656 -16.125,48.968 -23.438,73.625c-0.031,-2.032 -0.156,-6.094 -0.219,-8.125c-3.812,6.968 -6.843,14.437 -8.281,22.281c-6.187,30.937 -12.969,61.812 -16.344,93.219c-3.562,37.875 -7.281,75.781 -7.718,113.843c-0.969,41.594 3.156,83.094 7.25,124.469c4.718,46.938 13.906,93.375 26.656,138.781c2.969,9.688 3.719,21.25 12.594,27.782l-0.844,-3.75c2.781,8.718 5.875,17.375 9.25,25.937c10.937,37.656 28.062,73.344 46.094,108.094c47.187,92.219 114.656,175.062 199.843,234.656c32.282,23.25 67.313,43.219 104.532,57.313c13,6.875 26.843,12.156 41.125,15.687c13.062,6.813 27.906,9.188 41.875,13.594l-3.907,-0.656c5.438,7.875 15.344,8.656 23.907,10.593c13.625,2.657 27.656,6.063 41.5,2.719l-3.125,-1.344c1.625,-0.062 4.875,-0.25 6.5,-0.343c5.781,0.968 11.593,2.375 17.531,1.968c7.187,0.719 14.406,1.407 21.625,1.813l-2.563,0.125c-4.093,0.75 -8.187,1.656 -12.218,2.781c7.5,1.688 15.125,2.781 22.843,2.719c29.688,0.031 59.563,-0.5 88.844,-5.875c-1.5,-0.625 -4.5,-1.875 -6,-2.531c84.094,-9.938 166.375,-38.094 237.75,-83.969c83.25,-54.719 152.906,-129.563 202.938,-215.656c31.406,-53.188 56.906,-110 74.843,-169.125c12.219,-43.344 23.688,-87.125 29.032,-131.907c1.781,-10.5 3.812,-21.031 3.968,-31.718c2.407,-15.032 3.25,-30.25 3.907,-45.407l0.093,2.188c1.219,3.219 2.594,6.375 4.094,9.531c2.438,-21.125 0.938,-42.406 1.281,-63.625c0.407,-44.187 3.188,-88.875 -5.125,-132.562l-2.625,7l-0.75,2.156c-0.468,-5.344 -1.187,-10.625 -2.093,-15.875c-5.719,-58.438 -19.938,-115.906 -37.782,-171.75c-34.156,-100.938 -86.875,-196.813 -159.906,-274.813c-11.062,-13.593 -23.656,-25.906 -37.062,-37.125c-36.75,-36.187 -79.188,-67.593 -125.844,-89.656c-10.625,-6.812 -22.156,-12.187 -34.031,-16.375c-1.938,-1.437 -4.063,-2.437 -6.375,-3.031c-16.625,-7.938 -34.282,-13.281 -51.563,-19.531l3.75,0.812c-5.656,-8.281 -15.937,-9.625 -24.875,-11.937c-69.625,-16.25 -142.281,-21.157 -213.125,-10.219Zm205.969,-390.219c-33.281,9.375 -55.438,38.781 -72.875,66.844c-4.688,3 -9.188,6.594 -11.406,11.906c-8.532,17.281 -15.782,35.25 -21.157,53.781c-5.968,20.094 -6.812,41.188 -10.656,61.719c-1.875,9.844 -2.156,19.938 -0.812,29.906c0.406,-1.218 1.187,-3.656 1.593,-4.843c11.625,9.375 24.657,-2.157 35.282,-7.438c55.843,-27.594 100.25,-77.281 121.75,-135.719c7.468,-19.468 8.937,-42.437 -1.969,-60.968c-7.313,-13.938 -25.031,-20.469 -39.75,-15.188Z" style="fill:#201712;"/>
      <path d="M706.798,255.846c-10.625,5.281 -23.657,16.813 -35.282,7.438c4.188,-14.438 5.375,-29.5 7.188,-44.344c2.437,-38.344 17.375,-74.594 35.25,-108.125c17.437,-28.063 39.594,-57.469 72.875,-66.844c14.719,-5.281 32.437,1.25 39.75,15.188c10.906,18.531 9.437,41.5 1.969,60.968c-21.5,58.438 -65.907,108.125 -121.75,135.719Z" style="fill:#a1b950;"/>
      <g>
        <path d="M454.329,508.252c8.094,-3.218 19.375,-2.312 23.781,6.25c3.25,8.282 -0.125,17.875 -6.781,23.438c-12.594,11.062 -28.188,17.719 -42.469,26.187c-44.344,24.594 -82.844,58.5 -116.594,96.094c-5.781,5.969 -11.468,12.438 -19.125,16.031c-12.312,4.844 -27.812,-5.406 -27.468,-18.781c-0.219,-7.469 5.312,-13.187 9.875,-18.406c20.187,-21.594 43.187,-40.25 65.687,-59.313c27.688,-23.437 59.313,-41.375 90.438,-59.75c7.343,-4.25 14.625,-8.875 22.656,-11.75Z" style="fill:#fadf83;fill-rule:nonzero;"/>
        <path d="M229.36,695.909c11.906,-5.157 21.625,7.812 23.063,18.375c2.25,11.406 -6.907,21.25 -16.313,26.093c-12.5,7 -27.562,-7.031 -25.969,-19.968c1.375,-10.75 9.313,-20.344 19.219,-24.5Z" style="fill:#fadf83;fill-rule:nonzero;"/>
      </g>
      <path d="M804.704,623.627c16.406,4.157 32.406,9.875 48.281,15.75c41.625,17.25 81.688,38.75 117.219,66.594c15.281,12.75 31.187,24.781 45.687,38.438c47,44.312 83.719,98.468 113.125,155.718c19.344,40.157 35.344,82.188 45.032,125.782c0.093,1.218 0.281,3.718 0.343,4.968c-2.062,20.657 3.782,40.75 6.094,61.094c4.375,40.438 8.969,81.219 4.469,121.875c-2.219,40.125 -7.563,80.188 -19.406,118.688c-5.657,23.656 -17.344,45.625 -20.219,69.937c-2.438,10.969 -8.438,20.719 -13.281,30.75c-20.782,41.5 -48.532,79.438 -81.282,112.313c-36.906,34.687 -79.5,64.156 -127.125,82c-21.375,7.937 -43.25,14.406 -65.25,20.312c-9.656,2.031 -19.312,4 -29.031,5.688c-21.719,-3.657 -43.062,3.093 -64.531,5.375c-21.875,2.875 -43.969,3.562 -65.906,5.625c3.75,1.437 7.531,2.843 11.375,4.218c-4.157,0.25 -8.313,0.532 -12.438,0.657c-25.469,-5.125 -51.594,-3.688 -77.125,-0.094c-9.094,0.781 -18.219,-0.219 -27.281,-1.156c8.812,-0.219 17.562,-1.282 26.281,-2.438c-16.906,-3.531 -34.219,-3.469 -51.344,-4.687c-53.687,-4.813 -106.625,-16.563 -157.718,-33.563c-20,-6.406 -38,-18.219 -58.844,-22.187c-31.656,-15.125 -59.656,-37.438 -85.031,-61.563c-35.594,-33.781 -63.5,-75.156 -83.563,-119.844c-1.312,-3.031 -2.469,-6.125 -3.094,-9.343c-10.593,-18.125 -16.656,-38.407 -23.093,-58.25c-12.532,-38.469 -20.438,-78.25 -25.25,-118.407c-4.313,-44.281 -3.907,-88.875 0.031,-133.156c0.5,-5.094 1.312,-10.156 2,-15.219c1.344,-10.125 3.062,-20.218 4.375,-30.375c9.969,-50.562 23.687,-101.312 48.344,-146.812c0.812,-3.875 2.531,-7.5 4.25,-11.063c40.312,-79.062 97.687,-150.156 170.312,-201.812c40.531,-29.656 85.656,-52.906 133.063,-69.5c6.812,-2.094 13.625,-4.156 20.531,-5.969c11.031,-3.469 22.187,-6.5 33.469,-9.125c24.562,-5.812 49.5,-9.937 74.625,-12.219c24.343,-2.468 48.875,-1.937 73.218,0.063c10.657,1.187 21.375,2.187 32,3.75c14.219,2.062 28.188,5.531 42.313,8.156c9.562,2.188 19.031,4.813 28.531,7.375c1.469,0.406 4.375,1.25 5.844,1.656Zm-632.875,504.125c-1.594,30.063 -2.188,60.25 0.812,90.282c-0.156,2.75 -0.156,5.5 -0.062,8.312c5.344,41.5 11.437,83.344 25.906,122.813c1.688,9.812 5.813,19 9.313,28.281c19.843,50.062 46.656,98.594 86.187,135.844c44.094,43.781 100.906,72.937 160.344,89.656c13.781,3.562 27.469,7.531 41.562,9.781c75.469,16.469 153.407,18.281 230.219,12.938c4.063,-0.125 8.156,-0.469 12.219,-0.844c33.281,-2.594 66.187,-8.5 98.812,-15.406c18.407,-4.844 37.188,-8.75 54.782,-16.219c50.25,-14.219 95.531,-43.688 132.468,-80.313c34.719,-32.875 59.938,-74.375 80.219,-117.343l0.813,-2.407c25.718,-58 39.156,-121.062 42.437,-184.281c4.719,-66 -2.687,-132.812 -20.562,-196.469c-10.157,-37.75 -25.407,-73.968 -43.657,-108.468c-41.031,-74.813 -98.718,-141.813 -172.062,-186.407c-14.563,-8.562 -28.781,-18.343 -44.844,-23.875c-25.281,-14.093 -52.937,-23.062 -80.375,-31.812c-31.187,-7.844 -62.844,-13.969 -94.969,-16.188c-38.968,-2.562 -78.281,-0.75 -116.656,6.688c-19.156,3.812 -37.969,9.187 -56.531,15.312l-2.281,0.407c-54.907,17.625 -105.875,46.281 -150.5,82.718c-50.469,39.032 -91.625,89.032 -124,143.782c-14.375,26.875 -28.313,54.156 -37.75,83.187c-16.094,43.438 -25.5,89.063 -30.313,135.063c-0.469,3.937 -0.906,7.843 -1.219,11.812l-0.312,3.156Zm530.719,-1005.03c2.218,-5.312 6.718,-8.906 11.406,-11.906c-17.875,33.531 -32.813,69.781 -35.25,108.125c-1.813,14.844 -3,29.906 -7.188,44.344c-0.406,1.187 -1.187,3.625 -1.593,4.843c-1.344,-9.968 -1.063,-20.062 0.812,-29.906c3.844,-20.531 4.688,-41.625 10.656,-61.719c5.375,-18.531 12.625,-36.5 21.157,-53.781Zm-147.563,189.375c-1.281,11.438 -3.406,22.781 -5.625,34.063c-3.625,17.625 0.781,35.656 -2.25,53.312c-9,-28.344 -6.312,-61.125 7.875,-87.375Zm67.656,80.156c20.938,-0.906 41.907,-0.843 62.844,-0.406c-4.156,6.906 -13.031,3.563 -19.531,4.031c-25.719,-2.593 -51.469,6.688 -76.938,0.594l2.75,-0.5c10.219,-1.75 20.532,-2.844 30.875,-3.719Zm153.094,13c-0.875,-0.656 -2.656,-1.937 -3.531,-2.593c28.25,3.375 56,11.468 82.469,21.812c-13.282,-0.5 -26.188,-3.531 -38.782,-7.531c-13.281,-4.281 -27.718,-5 -40.156,-11.688Zm-194.875,28.938c70.844,-10.938 143.5,-6.031 213.125,10.219c8.938,2.312 19.219,3.656 24.875,11.937l-3.75,-0.812c-3.437,-0.844 -6.875,-1.657 -10.312,-2.469c-31.532,-9.594 -64.344,-14.219 -97.157,-16.75c-41.218,-2.656 -82.875,-3.094 -123.812,3.125c-13.313,1.406 -26.406,4.156 -39.625,6.094c-1.906,-0.032 -5.688,-0.094 -7.594,-0.157c13.344,-8.093 29.281,-8.593 44.25,-11.187Zm518,155.969c-18.531,-10.25 -33.656,-26 -44.281,-44.219c15.781,13.625 30.781,28.312 44.281,44.219Zm174.625,321.468c-5.531,-20.625 -15.531,-40.312 -15.75,-62.093c23.656,59.656 38.031,122.781 48.156,186.031c11.625,70.156 12.907,141.531 9.844,212.437c-6.594,111.594 -30.094,222.782 -74.5,325.657c-7.844,17 -14.812,34.531 -24.625,50.531c2.188,-21.375 15.156,-39.063 22.813,-58.531c17.593,-42.625 31.531,-86.688 43.437,-131.188c12.781,-54.156 21.469,-109.25 26.125,-164.687c4.594,-40.5 2.188,-81.313 2.625,-122c-3.281,-79.844 -16.312,-159.282 -38.125,-236.157Zm-1224.97,-24.187c0.438,21.937 -9.281,42 -14.062,63c-10.875,45.5 -19.875,91.562 -24.125,138.187c-4.781,43.532 -3.875,87.407 -3.688,131.125c-0.125,47.125 5.25,94.125 12.532,140.625c3.343,24.438 12.843,48.188 10.343,73.219c-19.156,-70.656 -26.125,-143.969 -29.343,-216.875c-1.875,-111.281 11.343,-223.937 48.343,-329.281Zm12.594,87.75c1.438,-7.844 4.469,-15.313 8.281,-22.281c0.063,2.031 0.188,6.093 0.219,8.125c-0.906,4.781 -1.875,9.593 -2.781,14.437c-2.406,10 -4.469,20.094 -6.469,30.219c-2.875,11.531 -5.187,23.219 -6.5,35.031c-2.156,15.906 -4.219,31.813 -5.781,47.75c-0.156,2.063 -0.469,6.188 -0.656,8.25c-1.813,19.938 -3.782,39.906 -3.875,59.938c-1.188,23.312 -0.469,46.656 0.062,69.968c-0.25,20.032 2,39.938 3.875,59.844c0.406,7.188 1.281,14.375 2.094,21.563c3.469,33.593 9.219,66.937 17.187,99.75c3.407,18 8.344,35.656 13.75,53.125c0.563,2.156 1.657,6.468 2.188,8.625l0.844,3.75c-8.875,-6.532 -9.625,-18.094 -12.594,-27.782c-12.75,-45.406 -21.938,-91.843 -26.656,-138.781c-4.094,-41.375 -8.219,-82.875 -7.25,-124.469c0.437,-38.062 4.156,-75.968 7.718,-113.843c3.375,-31.407 10.157,-62.282 16.344,-93.219Z" style="fill:#1f1507;"/>
      <g>
        <path d="M400.798,1672.88c9,0.594 17.968,1.844 26.843,3.594c20.907,8.313 41.407,21.906 50.719,43.219c11.219,22.094 10.406,49.25 -0.75,71.187c-9.406,17.25 -25.5,30.032 -43.344,37.813c-12.875,3.312 -26.187,4.219 -39.406,3.437c-19.562,-5.062 -39.344,-13.968 -51.219,-31.031c-7.687,-10.281 -12.125,-22.531 -15.031,-34.906c-0.656,-12.375 0.656,-24.719 3.219,-36.781c11,-29.25 37.406,-52.813 68.969,-56.532m-28.907,69.813c-5.718,1.937 -5.875,17.937 -0.187,19.969c1.437,25.625 36.187,36.312 55.531,22.031c21.313,-11.875 23.313,-44.156 5.063,-59.688c-17.938,-18.625 -58.25,-9.75 -60.407,17.688Z" style="fill:#332114;fill-rule:nonzero;"/>
        <path d="M891.048,1676.57c16.093,-4.531 33.093,-4.531 49.218,-0.094c26.063,10.438 46.25,33 53.313,60.25c0.406,10.531 0.375,21.094 -0.313,31.656c-6.218,24.969 -23.375,46 -46.437,57.344c-25,10.656 -54.5,7.906 -77.219,-6.969c-20.437,-16 -33.719,-41.625 -32.344,-67.812c-0.156,-33.063 22.875,-63.563 53.782,-74.375m-1.563,48.469c-21.031,16.625 -14.406,53 10.031,62.718c16.313,5.532 35.344,1.813 45.938,-12.531c9.75,-11 10.625,-28.375 3.187,-40.812c-6.562,-9.407 -15.75,-17.875 -27.625,-19.188c-11.531,-2.406 -22.437,3.375 -31.531,9.813Z" style="fill:#342114;fill-rule:nonzero;"/>
        <path d="M676.704,1717.07c25.812,6.5 46.656,25.844 57.375,49.906c6.281,21.188 6.25,44.75 -3.719,64.813c-11.594,19.718 -30.969,33.75 -52.562,40.75c-10.938,0.781 -21.907,0.625 -32.844,0.281c-18.469,-5.719 -35.938,-16.125 -46.781,-32.5c-21.375,-28.75 -17.344,-71.188 5.656,-97.813c10.594,-13 26.031,-20.781 41.781,-25.687l-3.094,0.031c12.688,-5.562 26.844,-4.312 39.907,-1c-1.438,0.313 -4.313,0.906 -5.719,1.219Zm-25.469,41.656c-14.969,4.188 -28.125,17.219 -29.312,33.156c-0.5,20.625 17.031,39.469 37.781,40.219c23.281,2.969 43.969,-20.969 39.062,-43.625c-2.812,-21.531 -26.781,-37.25 -47.531,-29.75Z" style="fill:#342114;"/>
        <path d="M899.516,1787.75c-24.437,-9.718 -31.062,-46.093 -10.031,-62.718c10.406,-3.063 21.156,-6.563 32.125,-5.5c10.25,2.156 18.719,8.875 27.031,14.875c7.438,12.437 6.563,29.812 -3.187,40.812c-10.594,14.344 -29.625,18.063 -45.938,12.531Z" style="fill:#eea30d;"/>
        <path d="M651.235,1758.72c20.75,-7.5 44.719,8.219 47.531,29.75c4.907,22.656 -15.781,46.594 -39.062,43.625c-20.75,-0.75 -38.281,-19.594 -37.781,-40.219c1.187,-15.937 14.343,-28.968 29.312,-33.156Z" style="fill:#efa40e;fill-rule:nonzero;"/>
        <path d="M371.704,1762.66c-5.688,-2.032 -5.531,-18.032 0.187,-19.969c2.157,-27.438 42.469,-36.313 60.407,-17.688c18.25,15.532 16.25,47.813 -5.063,59.688c-19.344,14.281 -54.094,3.594 -55.531,-22.031Z" style="fill:#eea40d;"/>
      </g>
      <path d="M442.423,1895.53c-37.219,-14.094 -72.25,-34.063 -104.532,-57.313c-85.187,-59.594 -152.656,-142.437 -199.843,-234.656c-18.032,-34.75 -35.157,-70.438 -46.094,-108.094c-3.375,-8.562 -6.469,-17.219 -9.25,-25.937c-0.531,-2.157 -1.625,-6.469 -2.188,-8.625c-5.406,-17.469 -10.343,-35.125 -13.75,-53.125c-7.968,-32.813 -13.718,-66.157 -17.187,-99.75c-0.813,-7.188 -1.688,-14.375 -2.094,-21.563c-1.875,-19.906 -4.125,-39.812 -3.875,-59.844c0.25,-23.343 0.219,-46.656 -0.062,-69.968c0.093,-20.032 2.062,-40 3.875,-59.938c0.187,-2.062 0.5,-6.187 0.656,-8.25c1.562,-15.937 3.625,-31.844 5.781,-47.75c1.313,-11.812 3.625,-23.5 6.5,-35.031c2,-10.125 4.063,-20.219 6.469,-30.219c0.906,-4.844 1.875,-9.656 2.781,-14.437c7.313,-24.657 13.25,-49.969 23.438,-73.625c6.406,-21.344 15.218,-41.969 24.812,-62.063c7.375,-19.75 18.063,-38.031 27.938,-56.594c41.375,-76.781 96,-146.593 161.968,-203.75c46.032,-38.718 97.438,-72.187 154,-93.187c23,-9.406 46.813,-17.5 71.313,-22c3.531,-1.813 7.25,-3.281 11.125,-4.281c13.219,-1.938 26.312,-4.688 39.625,-6.094c40.937,-6.219 82.594,-5.781 123.812,-3.125c32.813,2.531 65.625,7.156 97.157,16.75c3.437,0.812 6.875,1.625 10.312,2.469c17.281,6.25 34.938,11.593 51.563,19.531c2.312,0.594 4.437,1.594 6.375,3.031c11.875,4.188 23.406,9.563 34.031,16.375c46.656,22.063 89.094,53.469 125.844,89.656c13.406,11.219 26,23.532 37.062,37.125c73.031,78 125.75,173.875 159.906,274.813c17.844,55.844 32.063,113.312 37.782,171.75c0.906,5.25 1.625,10.531 2.093,15.875l0.75,-2.156c0.469,9.437 1.5,18.843 1.938,28.281c1.125,49.719 0.844,99.469 0.344,149.187c-0.657,15.157 -1.5,30.375 -3.907,45.407c-0.156,10.687 -2.187,21.218 -3.968,31.718c-5.344,44.782 -16.813,88.563 -29.032,131.907c-17.937,59.125 -43.437,115.937 -74.843,169.125c-50.032,86.093 -119.688,160.937 -202.938,215.656c-71.375,45.875 -153.656,74.031 -237.75,83.969c-7.406,0.687 -14.781,1.375 -22.187,1.562c-4.282,0.188 -8.532,0.406 -12.782,0.688c-18.625,0.656 -37.281,-0.344 -55.937,0.531c-7.219,-0.406 -14.438,-1.094 -21.625,-1.813c-5.938,0.407 -11.75,-1 -17.531,-1.968c-1.625,0.093 -4.875,0.281 -6.5,0.343c-13.469,-2.843 -27.063,-5.093 -40.563,-7.843c-5.969,-1.032 -11.875,-2.282 -17.812,-3.469c-13.969,-4.406 -28.813,-6.781 -41.875,-13.594c-14.282,-3.531 -28.125,-8.812 -41.125,-15.687Zm235.375,-23c21.593,-7 40.968,-21.032 52.562,-40.75c9.969,-20.063 10,-43.625 3.719,-64.813c-10.719,-24.062 -31.563,-43.406 -57.375,-49.906c1.406,-0.313 4.281,-0.906 5.719,-1.219c-13.063,-3.312 -27.219,-4.562 -39.907,1l3.094,-0.031c-15.75,4.906 -31.187,12.687 -41.781,25.687c-23,26.625 -27.031,69.063 -5.656,97.813c10.843,16.375 28.312,26.781 46.781,32.5c10.937,0.344 21.906,0.5 32.844,-0.281Zm-349.188,-106.344c2.906,12.375 7.344,24.625 15.031,34.906c11.875,17.063 31.657,25.969 51.219,31.031c13.219,0.782 26.531,-0.125 39.406,-3.437c17.844,-7.781 33.938,-20.563 43.344,-37.813c11.156,-21.937 11.969,-49.093 0.75,-71.187c-9.312,-21.313 -29.812,-34.906 -50.719,-43.219c-8.875,-1.75 -17.843,-3 -26.843,-3.594c-31.563,3.719 -57.969,27.282 -68.969,56.532c-2.563,12.062 -3.875,24.406 -3.219,36.781Zm-99.25,-1070.28c-9.906,4.156 -17.844,13.75 -19.219,24.5c-1.593,12.937 13.469,26.968 25.969,19.968c9.406,-4.843 18.563,-14.687 16.313,-26.093c-1.438,-10.563 -11.157,-23.532 -23.063,-18.375Zm764.219,1040.81c-7.063,-27.25 -27.25,-49.812 -53.313,-60.25c-16.125,-4.437 -33.125,-4.437 -49.218,0.094c-30.907,10.812 -53.938,41.312 -53.782,74.375c-1.375,26.187 11.907,51.812 32.344,67.812c22.719,14.875 52.219,17.625 77.219,6.969c23.062,-11.344 40.219,-32.375 46.437,-57.344c0.688,-10.562 0.719,-21.125 0.313,-31.656Zm-104.094,-11.687c9.094,-6.438 20,-12.219 31.531,-9.813c11.875,1.313 21.063,9.781 27.625,19.188c-8.312,-6 -16.781,-12.719 -27.031,-14.875c-10.969,-1.063 -21.719,2.437 -32.125,5.5Zm-435.156,-1216.78c-8.031,2.875 -15.313,7.5 -22.656,11.75c-31.125,18.375 -62.75,36.313 -90.438,59.75c-22.5,19.063 -45.5,37.719 -65.687,59.313c-4.563,5.219 -10.094,10.937 -9.875,18.406c-0.344,13.375 15.156,23.625 27.468,18.781c7.657,-3.593 13.344,-10.062 19.125,-16.031c33.75,-37.594 72.25,-71.5 116.594,-96.094c14.281,-8.468 29.875,-15.125 42.469,-26.187c6.656,-5.563 10.031,-15.156 6.781,-23.438c-4.406,-8.562 -15.687,-9.468 -23.781,-6.25Zm-322.531,729.625c4.812,40.157 12.718,79.938 25.25,118.407c6.437,19.843 12.5,40.125 23.093,58.25c0.625,3.218 1.782,6.312 3.094,9.343c20.063,44.688 47.969,86.063 83.563,119.844c25.375,24.125 53.375,46.438 85.031,61.563c32.187,20.812 69.719,31.093 106.156,41.843c30.563,7.469 61.5,13.657 92.813,17.032c14.218,1.531 28.406,3.25 42.656,4c9.062,0.937 18.187,1.937 27.281,1.156c21.063,0.906 42.156,1.094 63.219,0.656c4.625,-0.156 9.25,-0.344 13.906,-0.562c4.125,-0.125 8.281,-0.407 12.438,-0.657c31.093,-1.656 62.093,-4.968 92.781,-10.312c7.812,-1.469 15.687,-2.75 23.5,-4.281l2.781,-0.625c9.719,-1.688 19.375,-3.657 29.031,-5.688c22,-5.906 43.875,-12.375 65.25,-20.312c47.625,-17.844 90.219,-47.313 127.125,-82c32.75,-32.875 60.5,-70.813 81.282,-112.313c4.843,-10.031 10.843,-19.781 13.281,-30.75c8.031,-13.969 12.812,-29.437 17.906,-44.625c10.969,-35.094 19.656,-71 24.031,-107.531c0,5.812 0.657,11.656 1.219,17.5c3.781,-26.344 8.75,-53.688 2.375,-80.031c0,-5.813 0,-11.625 0.031,-17.407c-0.031,-17.687 -0.062,-35.437 -2.375,-53c-1.218,-10.375 -2.25,-20.75 -3.593,-31.125c-2.5,-18.625 -5.407,-37.25 -10.532,-55.375c-0.062,-1.25 -0.25,-3.75 -0.343,-4.968c-9.688,-43.594 -25.688,-85.625 -45.032,-125.782c-29.406,-57.25 -66.125,-111.406 -113.125,-155.718c-14.5,-13.657 -30.406,-25.688 -45.687,-38.438c-35.531,-27.844 -75.594,-49.344 -117.219,-66.594c-15.875,-5.875 -31.875,-11.593 -48.281,-15.75c-1.469,-0.406 -4.375,-1.25 -5.844,-1.656c-9.5,-2.562 -18.969,-5.187 -28.531,-7.375c-14.125,-2.625 -28.094,-6.094 -42.313,-8.156c-10.625,-1.563 -21.343,-2.563 -32,-3.75c-24.343,-2 -48.875,-2.531 -73.218,-0.063c-25.125,2.282 -50.063,6.407 -74.625,12.219c-11.282,2.625 -22.438,5.656 -33.469,9.125c-6.906,1.813 -13.719,3.875 -20.531,5.969c-47.407,16.594 -92.532,39.844 -133.063,69.5c-72.625,51.656 -130,122.75 -170.312,201.812c-1.719,3.563 -3.438,7.188 -4.25,11.063c-24.657,45.5 -38.375,96.25 -48.344,146.812c-1.313,10.157 -3.031,20.25 -4.375,30.375c-0.688,5.063 -1.5,10.125 -2,15.219c-3.938,44.281 -4.344,88.875 -0.031,133.156Zm40.343,-113.281c4.532,30.906 3.969,62.469 0.5,93.438c-3,-30.032 -2.406,-60.219 -0.812,-90.282l0.312,-3.156Zm138.875,-23.406c2.875,-7.844 6.438,-15.406 10.157,-22.875c-2.969,15.031 -7.282,30.031 -15.938,42.875c1.906,-6.688 3.781,-13.375 5.781,-20Zm280.719,-766.844c-1.594,19.656 -0.75,39.406 -0.062,59.094c-8.375,-18.625 -8.375,-40.5 0.062,-59.094Zm132.281,54.125c0.813,-13.875 1.938,-27.687 2.813,-41.531c5,15.812 2.812,32.437 -2.281,47.937c-13,-1.312 -25.969,-3.062 -39.063,-3.031c-20.937,-0.437 -41.906,-0.5 -62.844,0.406c-7.937,-0.375 -15.812,-1.218 -23.687,-2.093c41.562,-5.094 83.375,-0.688 125.062,-1.688Z" style="fill:#f4c041;"/>
      <path d="M1180.49,1091.97c-2.312,-20.344 -8.156,-40.437 -6.094,-61.094c5.125,18.125 8.032,36.75 10.532,55.375c1.343,10.375 2.375,20.75 3.593,31.125c2.313,17.563 2.344,35.313 2.375,53c-0.031,5.782 -0.031,11.594 -0.031,17.407c0.5,20.937 -2.062,41.687 -3.594,62.531c-4.375,36.531 -13.062,72.437 -24.031,107.531c-5.094,15.188 -9.875,30.656 -17.906,44.625c2.875,-24.312 14.562,-46.281 20.219,-69.937c11.843,-38.5 17.187,-78.563 19.406,-118.688c4.5,-40.656 -0.094,-81.437 -4.469,-121.875Z" style="fill:#251507;fill-rule:nonzero;"/>
      <path d="M351.829,1605.28c20.844,3.968 38.844,15.781 58.844,22.187c51.093,17 104.031,28.75 157.718,33.563c17.125,1.218 34.438,1.156 51.344,4.687c-8.719,1.156 -17.469,2.219 -26.281,2.438c-14.25,-0.75 -28.438,-2.469 -42.656,-4c-31.313,-3.375 -62.25,-9.563 -92.813,-17.032c-36.437,-10.75 -73.969,-21.031 -106.156,-41.843Z" style="fill:#251507;fill-rule:nonzero;"/>
      <path d="M1270.52,1081.53c0.657,-1.75 1.969,-5.25 2.625,-7c8.313,43.687 5.532,88.375 5.125,132.562c-0.343,21.219 1.157,42.5 -1.281,63.625c-1.5,-3.156 -2.875,-6.312 -4.094,-9.531c2.657,-50.375 3.407,-101.031 -0.437,-151.375c-0.438,-9.438 -1.469,-18.844 -1.938,-28.281Z" style="fill:#170a04;fill-rule:nonzero;"/>
      <path d="M43.61,1226.63c-0.531,-23.312 -1.25,-46.656 -0.062,-69.968c0.281,23.312 0.312,46.625 0.062,69.968Z" style="fill:#eea30d;fill-rule:nonzero;"/>
      <path d="M1190.86,1187.78c6.375,26.343 1.406,53.687 -2.375,80.031c-0.562,-5.844 -1.219,-11.688 -1.219,-17.5c1.532,-20.844 4.094,-41.594 3.594,-62.531Z" style="fill:#f8e064;fill-rule:nonzero;"/>
      <path d="M583.141,1499c1.5,-0.781 4.5,-2.375 6,-3.156c38.719,2.844 77.719,3.25 116.469,0.625c5.875,0.063 11.688,1.156 17.531,2.063c-20.937,4.781 -42.5,2.281 -63.75,2.937c-25.406,-0.531 -51.031,1.375 -76.25,-2.469Z" style="fill:#f9f6ea;fill-rule:nonzero;"/>
      <path d="M764.829,1658.91c21.469,-2.282 42.812,-9.032 64.531,-5.375l-2.781,0.625c-7.813,1.531 -15.688,2.812 -23.5,4.281c-30.688,5.344 -61.688,8.656 -92.781,10.312c-3.844,-1.375 -7.625,-2.781 -11.375,-4.218c21.937,-2.063 44.031,-2.75 65.906,-5.625Zm-144.094,10.406c25.531,-3.594 51.656,-5.031 77.125,0.094c-4.656,0.218 -9.281,0.406 -13.906,0.562c-21.063,0.438 -42.156,0.25 -63.219,-0.656Z" style="fill:#1e1006;"/>
      <path d="M879.141,1936c19.032,-6.875 35.875,-20 56.625,-21.5c-49.781,28.375 -105.125,45.938 -160.968,57.938c-53.344,11.625 -108.25,11.375 -162.563,9.5c-73.719,-6.75 -147.437,-23.969 -213.531,-57.906c10.812,1.656 21.562,4.156 31.594,8.718c36,15.844 73.937,27.25 112.687,34.25c51.188,9.688 103.594,13.907 155.625,10.125c61.906,-3.812 122.813,-18.781 180.531,-41.125Z" style="fill:#1e1611;fill-rule:nonzero;"/>
      <path d="M521.516,1924.16l3.907,0.656c5.937,1.187 11.843,2.437 17.812,3.469c13.5,2.75 27.094,5 40.563,7.843l3.125,1.344c-13.844,3.344 -27.875,-0.062 -41.5,-2.719c-8.563,-1.937 -18.469,-2.718 -23.907,-10.593Z" style="fill:#28180a;fill-rule:nonzero;"/>
      <path d="M629.454,1939.57c18.656,-0.875 37.312,0.125 55.937,-0.531c-19.437,1.812 -39,2.468 -58.5,0.656l2.563,-0.125Z" style="fill:#694e17;fill-rule:nonzero;"/>
      <path d="M685.391,1939.03c4.25,-0.282 8.5,-0.5 12.782,-0.688c7.406,-0.187 14.781,-0.875 22.187,-1.562c1.5,0.656 4.5,1.906 6,2.531c-29.281,5.375 -59.156,5.906 -88.844,5.875c-7.718,0.062 -15.343,-1.031 -22.843,-2.719c4.031,-1.125 8.125,-2.031 12.218,-2.781c19.5,1.812 39.063,1.156 58.5,-0.656Z" style="fill:#0e0509;fill-rule:nonzero;"/>
    </g>
    <g id="Tamagoshi">
      <path d="M477.423,921.846c22.562,-11.031 46.875,-19.125 71.437,-24.187c1.906,0.25 5.75,0.75 7.656,1c-26.968,5.687 -52.5,16.187 -79.093,23.187Z" style="fill:#fadf83;fill-rule:nonzero;"/>
      <path d="M755.11,902.19c13.563,2.875 26.875,7.125 39.344,13.219c-13.844,-1.907 -27.125,-6.438 -39.344,-13.219Z" style="fill:#fadf83;fill-rule:nonzero;"/>
      <path d="M423.954,1146.69c0.125,1.5 0.406,4.5 0.531,6c0.313,9.281 -1.406,20.125 5.625,27.469c5.063,7.625 14.969,5.437 22.75,6.25l3.438,0.156c-6.782,2.562 -14.75,6.281 -21.5,1.437c-14.594,-8.031 -15.469,-27.125 -10.844,-41.312Z" style="fill:#fadf83;fill-rule:nonzero;"/>
      <path d="M982.485,1255.35c0.969,0.531 2.906,1.594 3.906,2.125c-1.812,13.875 -5.031,27.563 -9.437,40.875c1.344,-14.406 3.25,-28.719 5.531,-43Z" style="fill:#fadf83;fill-rule:nonzero;"/>
      <path d="M495.266,875.159c45.188,-17.625 93.907,-24 142.094,-26.375c54.969,0.25 110.688,7.843 161.781,28.906c8.719,3.5 17.969,5.094 27.25,6.344c2.407,0.5 4.75,1.281 7.032,2.343c62.156,31.094 114.718,81.094 148.531,141.875c13.5,24.125 24.156,49.782 32.437,76.157c18.969,64.5 21.438,134.5 3.188,199.437c-17.219,55.781 -55.75,103.781 -105.188,134.406c-12.687,7.375 -24.906,16.344 -39.093,20.532c-21.344,1.093 -40.344,11.687 -60.844,16.468c-51.906,12.282 -105.375,16.938 -158.625,17.125c-34.438,-1.812 -69.063,-0.656 -103.313,-5.468c-50.031,-5.75 -99.281,-18.313 -145.687,-37.938c-14.375,-6.875 -28.344,-14.75 -43.75,-19.125c-33.563,-20.187 -60.906,-50.281 -79.375,-84.812c-29.625,-59.438 -34.188,-128.469 -24.25,-193.344c14.375,-89.719 63.281,-174.188 136.406,-228.656c23.031,-16.344 46.969,-32.657 73.656,-42.125c9.407,-1.032 18.844,-2.407 27.75,-5.75m106.813,9.5c24.75,0.5 49.562,0.718 74.312,0.125c-24.406,-4.313 -49.843,-3.657 -74.312,-0.125m-53.219,13c-24.562,5.062 -48.875,13.156 -71.437,24.187c-66.125,28.125 -118.657,82.563 -151.969,145.563c-1.75,3.468 -3.344,7.093 -4.281,10.906c-3.719,7.469 -7.282,15.031 -10.157,22.875l0.938,-3.531c-9.063,5.093 -10.188,16.031 -12.844,25.031c-8.656,35.687 -14.062,72.781 -10,109.5c1.75,14.125 -0.094,29.812 8.594,42.094c0.062,-1.907 0.219,-5.657 0.281,-7.563c6.25,27.875 15.875,55.469 32.281,79.063c24.344,35.781 62.344,59.031 101.282,76.093l-3.344,-1.031c3.062,4.094 6.687,7.938 11.844,9.281c44.468,15.532 91.187,23.563 138,28c10.593,1.063 21.562,0.938 31.437,-3.5l2.719,0.094l2.656,1.938l-3.25,0.687c12.406,4.031 25.594,2.969 38.469,3c15.281,-0.312 30.906,1.188 45.75,-3.344l-3.375,-0.187l-2.813,-2.313c18.469,-0.031 36.782,-2.625 55.094,-4.812c26.875,-1.938 53.469,-7.5 79.281,-15.156c55.5,-17.438 107.032,-52.032 138.094,-101.938l-1.406,2.844c4.719,-3.219 9.344,-6.906 11.625,-12.313c14.344,-29.093 20.219,-61.562 21.656,-93.718c0.469,-15.282 2.125,-31.125 -3.281,-45.75c-0.219,1.593 -0.719,4.812 -0.938,6.406l-1.468,2.937c-0.344,-6.312 -1,-12.625 -1.813,-18.875c-8.094,-113.187 -85.844,-218.531 -192.031,-258.718c-12.469,-6.094 -25.781,-10.344 -39.344,-13.219c-14.75,-5.625 -30.594,-7.281 -46,-10.25c-53.031,-7.781 -108.25,-8.625 -160.25,5.719Z" style="fill:#332114;fill-rule:nonzero;"/>
      <path d="M476.204,1104.19c8.875,-0.125 17.781,-0.313 26.687,0.094c26.063,8.812 50.657,33.031 47.688,62.437c-0.094,12.781 -15.125,22.781 -26.875,17.313c-10,-3.157 -11.219,-14.688 -15.375,-22.75c-4.719,-11.219 -19.75,-16.782 -30.406,-10.688c-14.375,6.875 -14.563,25.219 -25.063,35.813c-7.781,-0.813 -17.687,1.375 -22.75,-6.25c-7.031,-7.344 -5.312,-18.188 -5.625,-27.469c4.844,-10.031 9.688,-20.344 17.219,-28.719c9.219,-9.875 21.937,-15.469 34.5,-19.781Z" style="fill:#332114;fill-rule:nonzero;"/>
      <path d="M776.579,1104.44c9.437,-0.406 18.875,-0.438 28.312,0.062c25.969,7.75 50.469,30.282 49.563,59.094c0.937,12.281 -8.719,26.063 -22,24c-12,-2.5 -15.344,-15.031 -19.656,-24.656c-4.282,-10.406 -17.125,-17.063 -27.782,-12.25c-14.968,4.812 -11.312,25.812 -24.812,32.312c-10.813,6.875 -26.625,-1.156 -27.688,-13.906c-4.312,-28.812 17.813,-55.5 44.063,-64.656Z" style="fill:#332114;fill-rule:nonzero;"/>
      <path d="M602.079,884.659c24.469,-3.532 49.906,-4.188 74.312,0.125c-24.75,0.593 -49.562,0.375 -74.312,-0.125Z" style="fill:#100501;fill-rule:nonzero;"/>
      <path d="M470.454,1102.5c11.875,-2.218 25.406,-5.031 36.344,1.813l-3.907,-0.031c-8.906,-0.407 -17.812,-0.219 -26.687,-0.094c-1.438,-0.406 -4.313,-1.25 -5.75,-1.688Z" style="fill:#f0d86d;fill-rule:nonzero;"/>
      <path d="M770.735,1103.25c12.938,-3.906 26.75,-4.125 39.719,-0.187c-1.375,0.375 -4.156,1.094 -5.563,1.437c-9.437,-0.5 -18.875,-0.468 -28.312,-0.062c-1.469,-0.281 -4.375,-0.906 -5.844,-1.188Z" style="fill:#f7df6b;fill-rule:nonzero;"/>
      <path d="M986.891,1252.41c-3.281,-25.969 -3.375,-52.282 -0.406,-78.282c0.813,6.25 1.469,12.563 1.813,18.875c-0.563,15.532 0.218,31.063 -0.282,46.594c-0.343,4.25 -0.718,8.531 -1.125,12.813Z" style="fill:#faea6d;fill-rule:nonzero;"/>
      <path d="M385.641,1186.53c37.5,-5.563 75.75,26.187 74.782,64.531c1.531,21.781 -13.438,40.156 -30.5,51.687c-25.5,17.875 -64.782,15.657 -85.782,-8.312c-14.375,-14.406 -20.25,-36 -16.687,-55.844c4.125,-28.187 30.844,-48.969 58.187,-52.062Z" style="fill:#eb913f;fill-rule:nonzero;"/>
      <path d="M873.016,1186.44c30.344,-7.875 66.969,8.187 78,38.469c9.125,26.531 -1.343,58.562 -24.343,74.625c-21.313,13.312 -49.782,15.125 -72.157,3.343c-15.031,-7.406 -25.625,-21.906 -31,-37.5c-5.5,-19.937 -0.406,-43.031 14.344,-57.843c9.688,-9.813 21.969,-17.032 35.156,-21.094Z" style="fill:#eb913f;fill-rule:nonzero;"/>
      <path d="M990.704,1183.66c5.406,14.625 3.75,30.468 3.281,45.75c-1.437,32.156 -7.312,64.625 -21.656,93.718c-2.281,5.407 -6.906,9.094 -11.625,12.313l1.406,-2.844c5.813,-11.031 11.25,-22.312 14.844,-34.25c4.406,-13.312 7.625,-27 9.437,-40.875c0.125,-1.281 0.375,-3.781 0.5,-5.062c0.407,-4.282 0.782,-8.563 1.125,-12.813c1.938,-16.437 2.188,-33 1.75,-49.531c0.219,-1.594 0.719,-4.813 0.938,-6.406Z" style="fill:#1f1106;fill-rule:nonzero;"/>
      <path d="M988.298,1193l1.468,-2.937c0.438,16.531 0.188,33.094 -1.75,49.531c0.5,-15.531 -0.281,-31.062 0.282,-46.594Z" style="fill:#6e510a;fill-rule:nonzero;"/>
      <path d="M587.048,1225.5c45.781,0.907 91.593,0.625 137.375,1.282l0.031,3.25l-2.875,0.062c-44.781,0.344 -89.531,0.219 -134.281,-1.469l-0.25,-3.125Z" style="fill:#fded71;fill-rule:nonzero;"/>
      <path d="M555.766,1234.94c8.688,-7.563 20.844,-6.625 31.532,-6.313c44.75,1.688 89.5,1.813 134.281,1.469l0.281,2.156c-36.75,-0.968 -73.844,-3.218 -110.469,1.032c25.282,2.843 50.782,1.375 76.157,1.968c13.937,0.282 27.843,-0.843 41.687,-2.375c12.969,7.75 12.063,24.782 12.656,37.907c-2.75,19.156 -8.156,38.062 -18.25,54.75c-12.875,21.343 -34,37.812 -58.593,42.937c-24.907,4.625 -52.032,2.031 -73.813,-11.656c-31.312,-17.938 -49.844,-54.563 -48.469,-90.25c-0.031,-11.656 3.25,-24.313 13,-31.625m24.875,56.687c8.875,32.75 46.594,52.907 78.844,43.625c21.094,-5.5 40.438,-25.437 36.406,-48.5c-8.593,-11.25 -24.062,-13.406 -37.218,-15.281c-27,-2.625 -57.094,1.469 -78.032,20.156Z" style="fill:#322114;fill-rule:nonzero;"/>
      <path d="M611.391,1233.28c36.625,-4.25 73.719,-2 110.469,-1.032c1.844,0.157 5.531,0.469 7.375,0.625c-13.844,1.532 -27.75,2.657 -41.687,2.375c-25.375,-0.593 -50.875,0.875 -76.157,-1.968Z" style="fill:#120500;fill-rule:nonzero;"/>
      <path d="M580.641,1291.63c20.938,-18.687 51.032,-22.781 78.032,-20.156c13.156,1.875 28.625,4.031 37.218,15.281c4.032,23.063 -15.312,43 -36.406,48.5c-32.25,9.282 -69.969,-10.875 -78.844,-43.625Z" style="fill:#ed8669;fill-rule:nonzero;"/>
      <path d="M741.891,1270.78l1.032,-3.125c3,16.562 -2.375,33.25 -9.625,47.968c-2.032,4.313 -6.094,6.969 -9.657,9.907c10.094,-16.688 15.5,-35.594 18.25,-54.75Z" style="fill:#f0d85e;fill-rule:nonzero;"/>
      <path d="M428.204,1420.85l3.344,1.031c39.968,14.625 81.656,24.469 124.093,28.282c17.875,2.125 35.844,3.75 53.844,4.468c-9.875,4.438 -20.844,4.563 -31.437,3.5c-46.813,-4.437 -93.532,-12.468 -138,-28c-5.157,-1.343 -8.782,-5.187 -11.844,-9.281Z" style="fill:#2e1d0c;fill-rule:nonzero;"/>
      <path d="M361.079,1429.85c15.406,4.375 29.375,12.25 43.75,19.125c46.406,19.625 95.656,32.188 145.687,37.938c34.25,4.812 68.875,3.656 103.313,5.468c53.25,-0.187 106.719,-4.843 158.625,-17.125c20.5,-4.781 39.5,-15.375 60.844,-16.468c-52.094,25.218 -110.625,32.781 -167.688,37.687c-38.75,2.625 -77.75,2.219 -116.469,-0.625c-21.656,-1.719 -43.25,-4.375 -64.843,-6.937c-24.907,-4.532 -49.657,-9.875 -73.875,-17.344c-30.782,-11.281 -63.313,-21 -89.344,-41.719Z" style="fill:#241811;fill-rule:nonzero;"/>
      <path d="M555.641,1450.16c31.407,-3.907 62.875,2.562 94.407,0.875c31.593,1.625 63.125,-3.75 94.687,-1.344c-18.312,2.187 -36.625,4.781 -55.094,4.812c-25.812,-0.375 -51.625,0.188 -77.437,0.219l-2.719,-0.094c-18,-0.718 -35.969,-2.343 -53.844,-4.468Z" style="fill:#f2df71;fill-rule:nonzero;"/>
      <path d="M612.204,1454.72c25.812,-0.031 51.625,-0.594 77.437,-0.219l2.813,2.313c-25.875,-0.781 -51.719,-0.594 -77.594,-0.156l-2.656,-1.938Z" style="fill:#553a03;fill-rule:nonzero;"/>
      <path d="M614.86,1456.66c25.875,-0.438 51.719,-0.625 77.594,0.156l3.375,0.187c-14.844,4.532 -30.469,3.032 -45.75,3.344c-12.875,-0.031 -26.063,1.031 -38.469,-3l3.25,-0.687Z" style="fill:#160802;fill-rule:nonzero;"/>
      <path d="M297.579,1261.32c-5.688,-34.688 -5.719,-70.438 -0.063,-105.156c1.594,-11.844 3.969,-23.625 7.719,-34.969c8.656,-12.844 12.969,-27.844 15.938,-42.875c0.937,-3.813 2.531,-7.438 4.281,-10.906c33.312,-63 85.844,-117.438 151.969,-145.563c26.593,-7 52.125,-17.5 79.093,-23.187l-7.656,-1c52,-14.344 107.219,-13.5 160.25,-5.719c15.406,2.969 31.25,4.625 46,10.25c12.219,6.781 25.5,11.312 39.344,13.219c106.187,40.187 183.937,145.531 192.031,258.718c-2.969,26 -2.875,52.313 0.406,78.282l-0.5,5.062c-1,-0.531 -2.937,-1.594 -3.906,-2.125c-2.281,14.281 -4.187,28.594 -5.531,43c-3.594,11.938 -9.031,23.219 -14.844,34.25c-31.062,49.906 -82.594,84.5 -138.094,101.938c-25.812,7.656 -52.406,13.218 -79.281,15.156c-31.562,-2.406 -63.094,2.969 -94.687,1.344c-31.532,1.687 -63,-4.782 -94.407,-0.875c-42.437,-3.813 -84.125,-13.657 -124.093,-28.282c-38.938,-17.062 -76.938,-40.312 -101.282,-76.093c-16.406,-23.594 -26.031,-51.188 -32.281,-79.063c-0.094,-1.344 -0.312,-4.062 -0.406,-5.406Zm88.062,-74.781c-27.343,3.093 -54.062,23.875 -58.187,52.062c-3.563,19.844 2.312,41.438 16.687,55.844c21,23.969 60.282,26.187 85.782,8.312c17.062,-11.531 32.031,-29.906 30.5,-51.687c0.968,-38.344 -37.282,-70.094 -74.782,-64.531Zm84.813,-84.032c1.437,0.438 4.312,1.282 5.75,1.688c-12.563,4.312 -25.281,9.906 -34.5,19.781c-7.531,8.375 -12.375,18.688 -17.219,28.719c-0.125,-1.5 -0.406,-4.5 -0.531,-6c-4.625,14.187 -3.75,33.281 10.844,41.312c6.75,4.844 14.718,1.125 21.5,-1.437l-3.438,-0.156c10.5,-10.594 10.688,-28.938 25.063,-35.813c10.656,-6.094 25.687,-0.531 30.406,10.688c4.156,8.062 5.375,19.593 15.375,22.75c11.75,5.468 26.781,-4.532 26.875,-17.313c2.969,-29.406 -21.625,-53.625 -47.688,-62.437l3.907,0.031c-10.938,-6.844 -24.469,-4.031 -36.344,-1.813Zm116.594,123l0.25,3.125c-10.688,-0.312 -22.844,-1.25 -31.532,6.313c-9.75,7.312 -13.031,19.969 -13,31.625c-1.375,35.687 17.157,72.312 48.469,90.25c21.781,13.687 48.906,16.281 73.813,11.656c24.593,-5.125 45.718,-21.594 58.593,-42.937c3.563,-2.938 7.625,-5.594 9.657,-9.907c7.25,-14.718 12.625,-31.406 9.625,-47.968l-1.032,3.125c-0.593,-13.125 0.313,-30.157 -12.656,-37.907l-7.375,-0.625l-0.281,-2.156l2.875,-0.062l-0.031,-3.25c-45.782,-0.657 -91.594,-0.375 -137.375,-1.282Zm285.968,-39.062c-13.187,4.062 -25.468,11.281 -35.156,21.094c-14.75,14.812 -19.844,37.906 -14.344,57.843c5.375,15.594 15.969,30.094 31,37.5c22.375,11.782 50.844,9.969 72.157,-3.343c23,-16.063 33.468,-48.094 24.343,-74.625c-11.031,-30.282 -47.656,-46.344 -78,-38.469Zm-102.281,-83.188c1.469,0.282 4.375,0.907 5.844,1.188c-26.25,9.156 -48.375,35.844 -44.063,64.656c1.063,12.75 16.875,20.781 27.688,13.906c13.5,-6.5 9.844,-27.5 24.812,-32.312c10.657,-4.813 23.5,1.844 27.782,12.25c4.312,9.625 7.656,22.156 19.656,24.656c13.281,2.063 22.937,-11.719 22,-24c0.906,-28.812 -23.594,-51.344 -49.563,-59.094c1.407,-0.343 4.188,-1.062 5.563,-1.437c-12.969,-3.938 -26.781,-3.719 -39.719,0.187Z" style="fill:#f6c736;"/>
      <path d="M526.423,859.346c79.875,-21.125 165.75,-20.844 245.125,2.438c18.562,6.656 37.656,12.343 54.843,22.25c-9.281,-1.25 -18.531,-2.844 -27.25,-6.344c-51.093,-21.063 -106.812,-28.656 -161.781,-28.906c-48.187,2.375 -96.906,8.75 -142.094,26.375c-8.906,3.343 -18.343,4.718 -27.75,5.75c18.625,-9.719 39,-15.25 58.907,-21.563Z" style="fill:#21150f;fill-rule:nonzero;"/>
      <path d="M299.11,1122.69c2.656,-9 3.781,-19.938 12.844,-25.031l-0.938,3.531c-2,6.625 -3.875,13.312 -5.781,20c-3.75,11.344 -6.125,23.125 -7.719,34.969c-5.656,34.718 -5.625,70.468 0.063,105.156c0.094,1.344 0.312,4.062 0.406,5.406c-0.062,1.906 -0.219,5.656 -0.281,7.563c-8.688,-12.282 -6.844,-27.969 -8.594,-42.094c-4.062,-36.719 1.344,-73.813 10,-109.5Z" style="fill:#281707;fill-rule:nonzero;"/>
    </g>
    <path d="M574.735,652.315c38.375,-7.438 77.688,-9.25 116.656,-6.688c-4.625,1.094 -9.218,2.407 -13.781,3.719c51,2.594 101.906,11.844 149.469,30.719c12.812,5.656 25.844,10.906 39.656,13.562c16.063,5.532 30.281,15.313 44.844,23.875c73.344,44.594 131.031,111.594 172.062,186.407c18.25,34.5 33.5,70.718 43.657,108.468c0.031,10.063 0.437,20.188 2.875,30c10.562,42.625 14.843,86.657 13.937,130.532c1.156,54.125 -6.156,108.281 -21.094,160.312c-5.656,20.031 -15.468,38.938 -17.593,59.906l-0.813,2.407c-20.281,42.968 -45.5,84.468 -80.219,117.343c-36.937,36.625 -82.218,66.094 -132.468,80.313c-23.813,1.469 -46,10.781 -69.282,15.062c-31.437,7.063 -63.531,10.25 -95.562,13.25c3.719,1.125 7.469,2.25 11.25,3.313c-4.063,0.375 -8.156,0.719 -12.219,0.844c-27.125,-5.875 -54.844,-1.375 -82.281,-2.219c-38.094,-0.375 -76.344,-2.063 -113.906,-8.813c-11.219,-2.156 -22.657,-2.437 -34.032,-1.906c-14.093,-2.25 -27.781,-6.219 -41.562,-9.781c-59.438,-16.719 -116.25,-45.875 -160.344,-89.656c-39.531,-37.25 -66.344,-85.782 -86.187,-135.844c-3.5,-9.281 -7.625,-18.469 -9.313,-28.281c-0.875,-11.625 -2.562,-23.188 -5.781,-34.375c-8.719,-31.063 -13.531,-63.094 -15.5,-95.282c-1.156,1.719 -3.469,5.125 -4.625,6.844c-0.094,-2.812 -0.094,-5.562 0.062,-8.312c3.469,-30.969 4.032,-62.532 -0.5,-93.438c0.313,-3.969 0.75,-7.875 1.219,-11.812c0.906,3.656 1.844,7.281 2.844,10.906c3.187,-27.938 6.969,-55.875 13.094,-83.344c4.281,-21 13.968,-40.875 14.375,-62.625c9.437,-29.031 23.375,-56.312 37.75,-83.187c32.375,-54.75 73.531,-104.75 124,-143.782c44.625,-36.437 95.593,-65.093 150.5,-82.718l2.281,-0.407c19.969,-0.093 38.937,-6.781 58.219,-11.218c-0.438,-1 -1.25,-3.063 -1.688,-4.094m270.25,112.719c-9.469,1.375 -18.625,5.031 -26.187,10.937c-29.532,21.594 -30.5,72.906 -0.219,94.281c24.75,20.688 66.187,17.125 86.687,-7.812c20.407,-26.125 13.032,-68.313 -13.937,-87.063c-13.438,-9.093 -30.313,-12.906 -46.344,-10.343m-319.812,90.687l1.25,3.625c-19.907,6.313 -40.282,11.844 -58.907,21.563c-26.687,9.468 -50.625,25.781 -73.656,42.125c-73.125,54.468 -122.031,138.937 -136.406,228.656c-0.031,-2 -0.125,-6.063 -0.156,-8.063c-6.688,10.625 -6.375,23.469 -7.313,35.5c-2.375,46.25 -0.875,94 15.594,137.844c4.281,11 6.875,23.969 17.437,30.938l-1.312,-2.875c18.469,34.531 45.812,64.625 79.375,84.812c26.031,20.719 58.562,30.438 89.344,41.719l-3.532,-0.938c7.532,8.782 19.657,9.657 30.094,12.657c16.563,3.718 33.313,10.031 50.531,6.781l-3.218,-1.156c21.593,2.562 43.187,5.218 64.843,6.937c-1.5,0.781 -4.5,2.375 -6,3.156c25.219,3.844 50.844,1.938 76.25,2.469c21.25,-0.656 42.813,1.844 63.75,-2.937c-5.843,-0.907 -11.656,-2 -17.531,-2.063c57.063,-4.906 115.594,-12.469 167.688,-37.687c14.187,-4.188 26.406,-13.157 39.093,-20.532c49.438,-30.625 87.969,-78.625 105.188,-134.406l-0.875,3.594c3.531,-3.813 6.844,-8.031 7.875,-13.25c14.5,-59.844 12.187,-123.094 -3.656,-182.438c-0.938,-4.562 -4.375,-7.812 -7.407,-11.062l0.875,3.719c-8.281,-26.375 -18.937,-52.032 -32.437,-76.157c-33.813,-60.781 -86.375,-110.781 -148.531,-141.875c-2.282,-1.062 -4.625,-1.843 -7.032,-2.343c-17.187,-9.907 -36.281,-15.594 -54.843,-22.25l3.593,0.875c-3.781,-3.625 -8.031,-6.782 -13.25,-7.813c-77.031,-21 -159.906,-21.125 -236.718,0.875m450.968,27.688c-24.531,6.937 -40.375,33.343 -36.125,58.281c2.75,27.594 29.188,50.156 57,47.594c23.938,0.156 45.375,-18.219 50.469,-41.282c5.438,-21.281 -5.125,-43.968 -21.687,-57.343c-13.657,-11.282 -33.25,-11.657 -49.657,-7.25m72.125,150.312c-22.187,9.438 -24.312,44.969 -2.5,56.063c21.563,13.437 49.907,-11.907 44.125,-34.969c-4.656,-16.938 -25.031,-28.75 -41.625,-21.094Z" style="fill:#e1d6c3;fill-rule:nonzero;"/>
    <g id="Bubbles">
      <path d="M966.798,910.721c9.812,-5.187 23.937,3.438 20.968,15.063c0.344,11.75 -17.093,17.531 -24.25,8.406c-6.906,-6.656 -4.718,-18.719 3.282,-23.469Z" style="fill:#fbfdfb;fill-rule:nonzero;"/>
      <path d="M844.985,765.034c16.031,-2.563 32.906,1.25 46.344,10.343c26.969,18.75 34.344,60.938 13.937,87.063c-20.5,24.937 -61.937,28.5 -86.687,7.812c-30.281,-21.375 -29.313,-72.687 0.219,-94.281c7.562,-5.906 16.718,-9.562 26.187,-10.937m-6.406,33.281c-9.25,3.656 -11.438,17.844 -3.875,24.25c6.437,6.875 19.281,3.844 22.656,-4.875c5.938,-11.094 -7.156,-25.594 -18.781,-19.375Z" style="fill:#68b3c0;fill-rule:nonzero;"/>
      <path d="M1048.27,1033.72c16.594,-7.656 36.969,4.156 41.625,21.094c5.782,23.062 -22.562,48.406 -44.125,34.969c-21.812,-11.094 -19.687,-46.625 2.5,-56.063Z" style="fill:#68b3c0;fill-rule:nonzero;"/>
      <path d="M838.579,798.315c11.625,-6.219 24.719,8.281 18.781,19.375c-3.375,8.719 -16.219,11.75 -22.656,4.875c-7.563,-6.406 -5.375,-20.594 3.875,-24.25Z" style="fill:#fcfdfc;fill-rule:nonzero;"/>
      <path d="M976.141,883.409c16.407,-4.407 36,-4.032 49.657,7.25c16.562,13.375 27.125,36.062 21.687,57.343c-5.094,23.063 -26.531,41.438 -50.469,41.282c-27.812,2.562 -54.25,-20 -57,-47.594c-4.25,-24.938 11.594,-51.344 36.125,-58.281m-9.343,27.312c-8,4.75 -10.188,16.813 -3.282,23.469c7.157,9.125 24.594,3.344 24.25,-8.406c2.969,-11.625 -11.156,-20.25 -20.968,-15.063Z" style="fill:#68b3bf;fill-rule:nonzero;"/>
    </g>
  </g>
  <rect id="Artboard2" x="1525" y="0" width="1317.16" height="2393.22" style="fill:none;"/>
  <g>
    <path d="M2016.91,1286.62c11.281,-6.563 26.375,-5.531 36.594,2.75c11.094,7.938 16.094,21.156 19.906,33.719c0.625,9.656 0.75,19.375 0.75,29.093c-4.375,14.657 -13.062,27.657 -25.687,36.5c-7.938,0.407 -15.844,1.25 -23.75,1.5c-9.625,-3.968 -18.907,-9.5 -25.063,-18.093c-8.25,-19.813 -9.219,-42.125 -2.844,-62.594c5.094,-8.781 11.032,-17.688 20.094,-22.875Z" style="fill:#342114;fill-rule:nonzero;"/>
    <path d="M2132.13,1078.84c34.906,-5.25 70.344,-4.594 105.281,0.031c-23.812,3.281 -47.656,-1.344 -71.5,0.219c-11.25,0.656 -22.531,0.406 -33.781,-0.25Z" style="fill:#fadf83;fill-rule:nonzero;"/>
    <path d="M2440.1,1514.59c3.343,22.343 -0.813,44.875 1.156,67.281c-2.813,0.656 -5.625,1.313 -8.406,1.969c5.968,-22.469 5.156,-46.188 7.25,-69.25Z" style="fill:#fadf83;fill-rule:nonzero;"/>
    <path d="M1929.35,1570.72c-4.907,-10.875 -4.657,-22.75 -2.563,-34.219c0.75,11.406 1.656,22.813 2.563,34.219Z" style="fill:#fadf83;fill-rule:nonzero;"/>
    <path d="M2297.6,1314.16c4.968,-19.062 23.781,-35.812 44.343,-32.031c19.907,3.5 31.969,23.25 34.688,41.969c-4.094,18.812 -4.438,41.656 -20.469,54.906c-11.812,6.656 -26.219,3.75 -39.187,4.656c-23.282,-14.125 -25.75,-45.562 -19.375,-69.5Z" style="fill:#332114;fill-rule:nonzero;"/>
    <path d="M1968.32,1444.12c35.25,2.219 70.563,-4.5 105,-11.531c-32.375,14.531 -68.687,12 -103.062,17.281c-0.125,11.469 0.344,22.906 0.531,34.375c-0.781,0.844 -2.375,2.531 -3.156,3.375c0.219,-12.781 -0,-25.531 0.156,-38.281c0.125,-1.313 0.406,-3.907 0.531,-5.219Z" style="fill:#fbfdfb;fill-rule:nonzero;"/>
    <path d="M2342.38,1445.56c3.875,-0.876 7.781,-1.782 11.719,-2.563c14.406,0.75 28.843,1.25 43.187,2.75c3.688,18.625 1.438,37.594 1.094,56.375c-0.063,18.313 -2.375,36.5 -2.844,54.781c-1.625,-15.593 -2.187,-31.281 -0.656,-46.875c0.687,-8.5 1,-17 1.281,-25.5c0.469,-11.562 0.594,-23.093 0.25,-34.656c-17.875,-2.938 -35.969,-4.094 -54.031,-4.313Z" style="fill:#fbfdfb;fill-rule:nonzero;"/>
    <path d="M2264.51,1639.38c26.719,-1.656 52.344,-10.156 78.937,-12.594c-6.781,2.281 -13.656,4.313 -20.593,6c-16.907,3.782 -33.938,6.969 -51.094,9.469c-1.813,-0.719 -5.438,-2.156 -7.25,-2.875Z" style="fill:#fbfdfb;fill-rule:nonzero;"/>
    <path d="M2113.13,1077.91c20.375,-7.75 42.75,-6.281 64.187,-7.031c52.219,-1.563 104.563,7.313 153.625,25.094c5.094,1.5 8.625,5.437 11.875,9.468l-3.343,-1.093c-13,-4.563 -25.875,-9.5 -39.219,-12.907c-16.531,-4.75 -33.344,-8.812 -50.438,-11.031c-4.156,-0.594 -8.281,-1.156 -12.406,-1.531c-34.937,-4.625 -70.375,-5.281 -105.281,-0.031c-2.188,-0.063 -6.594,-0.157 -8.781,-0.188c-2.563,-0.187 -7.657,-0.562 -10.219,-0.75Z" style="fill:#1f1006;fill-rule:nonzero;"/>
    <path d="M2038.41,1102.25c27.469,-11.781 57.094,-18.625 86.719,-22.344c1.281,0.938 3.875,2.782 5.156,3.688c-31.5,1.718 -61,13.468 -91.875,18.656Z" style="fill:#eed963;fill-rule:nonzero;"/>
    <path d="M2238.95,1082.31c3.594,-0.688 7.219,-1.344 10.875,-1.907c17.094,2.219 33.907,6.281 50.438,11.031c-20.75,-0.5 -41.125,-4.625 -61.313,-9.125Z" style="fill:#f0db62;fill-rule:nonzero;"/>
    <path d="M2559.07,1280.28c-6.593,-19.125 -17.843,-36.531 -21.375,-56.656c9.688,13.875 16.032,29.688 22.907,45.063c9,22.999 15.406,46.874 20.093,71.093c1.313,11 2.75,21.969 3.563,33.031c2.906,44.032 -1.156,89 -17.313,130.344c-4.75,10.25 -9.968,20.406 -16.906,29.375c4.469,-20.937 16.375,-39.25 20.938,-60.125c15.437,-63.312 10.125,-131 -11.907,-192.125Z" style="fill:#241812;fill-rule:nonzero;"/>
    <path d="M1999.66,1372.09c-14.75,-16.875 -15.312,-44.282 -2.844,-62.594c-6.375,20.469 -5.406,42.781 2.844,62.594Z" style="fill:#f2d760;fill-rule:nonzero;"/>
    <path d="M2073.41,1323.09c0.844,-1.157 2.469,-3.407 3.313,-4.563c1.218,12.844 1.312,25.75 0.312,38.625c-0.719,-1.25 -2.156,-3.718 -2.875,-4.968c0,-9.719 -0.125,-19.438 -0.75,-29.094Z" style="fill:#f8e36e;fill-rule:nonzero;"/>
    <path d="M2356.16,1379c16.031,-13.25 16.375,-36.094 20.469,-54.906c4.375,24.156 -3.781,51.968 -26.156,64.562c-8.532,0.188 -17,-0.093 -25.438,-0.656c-2.031,-1.094 -6.062,-3.25 -8.062,-4.344c12.968,-0.906 27.375,2 39.187,-4.656Z" style="fill:#1d0e06;fill-rule:nonzero;"/>
    <path d="M2048.48,1388.69c40.312,0.968 76.937,-25.063 117.625,-18.157c-31.407,2.844 -61.594,12.25 -92.063,19.844c-15.5,3.75 -31.187,8.062 -47.25,7.344l-1.75,-1.438c-0.062,-1.5 -0.219,-4.562 -0.312,-6.094c7.906,-0.25 15.812,-1.093 23.75,-1.5Z" style="fill:#f2da5c;fill-rule:nonzero;"/>
    <path d="M2201.32,1370.75c13.782,-1.594 27.75,-1.281 41.438,1.281c-1.125,0.938 -3.406,2.813 -4.563,3.75c-4.437,-0.593 -8.843,-1.218 -13.218,-1.75c-7.875,-1.25 -15.782,-2.25 -23.657,-3.281Z" style="fill:#f3de67;fill-rule:nonzero;"/>
    <path d="M2209.85,1375.09c4.968,-0.688 10.031,-1.032 15.125,-1.063c4.375,0.532 8.781,1.157 13.218,1.75c1.782,0.25 5.313,0.813 7.063,1.094c34.031,9.125 68.187,18.281 103.031,23.813c10.375,1.749 20.844,2.687 31.375,2.968c20.063,0.563 40.25,4.5 60.25,1.563c11,-3.719 20.969,-9.813 31.313,-15.032l2.843,-1.437c-8.687,13.875 -25.968,19.844 -41.312,22.5c-30.5,-0.281 -61.281,-0.563 -91.344,-6.313c-29.844,-5.5 -59.25,-12.968 -88.594,-20.562c-14.187,-3.813 -29.218,-3.813 -42.968,-9.281Z" style="fill:#251408;fill-rule:nonzero;"/>
    <path d="M2245.26,1376.88c27.375,-2 52.281,13.938 79.781,11.125c8.438,0.563 16.906,0.844 25.438,0.656c-3.594,2.5 -7.157,4.969 -10.719,7.438c7.719,0.906 15.469,1.906 23.219,3.031c-4.907,0.594 -9.813,1.094 -14.688,1.563c-34.844,-5.532 -69,-14.688 -103.031,-23.813Z" style="fill:#fee54b;fill-rule:nonzero;"/>
    <path d="M1896.48,1388.94c9.906,5.468 19.937,10.812 30.5,14.906c15.5,5.656 32.343,1.125 48.437,3.25c-26.469,6.125 -61.344,5.968 -78.937,-18.157Z" style="fill:#170b05;fill-rule:nonzero;"/>
    <path d="M2457.76,1442.47c31.187,-14.438 59.281,-34.313 88.781,-51.75c-0.312,2 -0.937,6 -1.25,8c-5.469,26.687 -9.937,53.593 -13.125,80.656c-10,34.719 -36.812,61.344 -64,83.688c-8.406,6.999 -17.344,13.468 -26.906,18.812c-1.969,-22.406 2.187,-44.938 -1.156,-67.281c0.625,-22.563 2.843,-45.125 1.437,-67.719l0.281,1.625c2.188,18.469 0.407,37.125 2.375,55.625c1.719,-14.813 1.032,-29.781 2.157,-44.656c-0.063,-7.532 6.406,-12.375 11.406,-17Z" style="fill:#f6c735;fill-rule:nonzero;"/>
    <path d="M2532.16,1479.38c3.188,-27.063 7.656,-53.969 13.125,-80.656c0.563,27.218 -2.312,55.437 -13.125,80.656Z" style="fill:#eed35a;fill-rule:nonzero;"/>
    <path d="M2033.73,1434.59c55.781,-6.219 108.5,-33.594 165.562,-28.594c38.406,3.969 75.25,16.406 112.906,24.406c18.688,4.594 37.938,5.5 56.844,8.907c-4.156,1.187 -8.25,2.468 -12.437,3.156c-54.844,-4.75 -106.407,-27 -161.188,-31.688c-41.844,-2.593 -82.187,11.219 -122.094,21.813c-34.437,7.031 -69.75,13.75 -105,11.531l-3.062,-1.125c22.406,-5.531 45.781,-4.5 68.469,-8.406Z" style="fill:#1a1510;fill-rule:nonzero;"/>
    <path d="M2073.32,1432.59c39.907,-10.594 80.25,-24.407 122.094,-21.813c54.781,4.688 106.344,26.938 161.188,31.688l-2.5,0.531c-3.938,0.781 -7.844,1.688 -11.719,2.563c18.062,0.218 36.156,1.374 54.031,4.312c0.344,11.563 0.219,23.094 -0.25,34.656c-12.031,-0.312 -24.062,-0.281 -35.937,1.344c-37,5.313 -74.375,7.531 -111.657,9.375c-39.343,0.531 -78.718,2.406 -117.968,-0.688c-53.313,-2.531 -106.438,-9.187 -159.813,-10.312c-0.187,-11.469 -0.656,-22.906 -0.531,-34.375c34.375,-5.281 70.687,-2.75 103.062,-17.281Z" style="fill:#a3d1c7;fill-rule:nonzero;"/>
    <path d="M2271.7,1523.19c41.219,-2.938 82.125,-8.844 123.188,-13.157c-1.531,15.594 -0.969,31.281 0.656,46.875c-0.187,4.563 -0.656,9.156 -1,13.75l-1.469,-3.094c-1.75,-3.656 -3.468,-7.25 -5.187,-10.843c-26.25,3.937 -51.563,12.156 -77.625,17c-53.031,10.375 -107.469,16.968 -161.5,11.781c-15.406,-1.188 -30.813,-2.188 -46.063,-4.563c-43.531,-7.624 -87.343,-14.874 -129.031,-29.999c0.344,9.812 0.781,19.625 1.219,29.437c26.562,6.219 52.187,15.906 78.969,21.5c65.5,15.813 133.937,23.688 200.968,13.406c36.063,-5.75 72.375,-12 106.875,-24.468c10.594,-3.782 20.594,-9.282 29.438,-16.282c-1.531,8.688 -1.656,17.688 -4.219,26.188c-3.25,6.719 -9.312,11.562 -14.719,16.469c-9.062,4.5 -18.812,7.75 -28.75,9.593c-26.593,2.438 -52.218,10.938 -78.937,12.594c1.812,0.719 5.437,2.156 7.25,2.875c-13.188,1.938 -26.438,3.563 -39.75,4.469c-24.344,-4.469 -49.094,-2.563 -73.688,-3.407c-9.937,-0.375 -19.843,0.657 -29.562,2.594c-17.469,-1.375 -34.875,-3.625 -52.031,-7.25c1.718,-0.812 5.125,-2.406 6.812,-3.219c-20.031,-4.875 -39.969,-11.625 -60.844,-11.218c-13.218,-3.5 -26.031,-8.219 -38.937,-12.625c-3.906,-2.125 -7.594,-4.563 -11.281,-6.907c-0.094,-18.375 -2.875,-36.656 -3.438,-54.968c2.156,-12.532 3.406,-25.219 3.219,-37.907c99.187,12.313 199.594,17.782 299.437,11.375Z" style="fill:#a3d1c7;fill-rule:nonzero;"/>
    <path d="M2441.82,1448.5c5.219,-2.125 10.563,-4.125 15.938,-6.031c-5,4.625 -11.469,9.468 -11.406,17c-1.125,14.875 -0.438,29.843 -2.157,44.656c-1.968,-18.5 -0.187,-37.156 -2.375,-55.625Z" style="fill:#f9e869;fill-rule:nonzero;"/>
    <path d="M1919.32,1444.81c1.407,1.312 4.219,3.906 5.625,5.218c-1.625,26.313 -0.5,52.688 -2.125,79c-2.687,-28 -1.125,-56.187 -3.5,-84.219Z" style="fill:#fbeb6c;fill-rule:nonzero;"/>
    <path d="M1963.19,1445.66c0.875,1.625 2.688,4.813 3.594,6.407c-1.437,26.562 -0.531,53.218 0.031,79.781c-0.843,1.625 -2.531,4.812 -3.375,6.406c-2.062,-30.75 -2.968,-61.844 -0.25,-92.594Z" style="fill:#1d0802;fill-rule:nonzero;"/>
    <path d="M1924.91,1452.31l1.125,-3.344c5.313,13.25 4.281,27.718 4.406,41.687c-0.187,18.813 -0.375,37.719 2.25,56.407c1.719,12 1.875,24.281 -0.968,36.125l-0.625,-3.125c-0.438,-2.313 -1.313,-7 -1.75,-9.344c-0.907,-11.406 -1.813,-22.813 -2.563,-34.219c-1.125,-28.031 -2.594,-56.125 -1.875,-84.187Z" style="fill:#160a03;fill-rule:nonzero;"/>
    <path d="M1966.79,1452.06l1,-2.719c-0.156,12.75 0.063,25.5 -0.156,38.281c0.781,-0.844 2.375,-2.531 3.156,-3.375c53.375,1.125 106.5,7.781 159.813,10.313c39.25,3.093 78.625,1.218 117.968,0.687c37.282,-1.844 74.657,-4.063 111.657,-9.375c11.875,-1.625 23.906,-1.656 35.937,-1.344c-0.281,8.5 -0.594,17 -1.281,25.5c-41.063,4.313 -81.969,10.219 -123.188,13.157c-99.843,6.406 -200.25,0.937 -299.437,-11.375c-1.094,-0.469 -3.313,-1.344 -4.406,-1.813c-0.219,6.531 -0.563,13.063 -0.875,19.594l-0.157,2.25c-0.562,-26.563 -1.468,-53.219 -0.031,-79.781Z" style="fill:#629b93;fill-rule:nonzero;"/>
    <path d="M2398.38,1502.12c8,10.219 4.187,23.594 3.5,35.406c-2.656,18.594 -1.625,37.438 -2.938,56.125c-0.218,6.157 -3.562,11.5 -6.562,16.688l0.094,-3.594c0.281,-12.063 1.656,-24.063 2.062,-36.094c0.344,-4.593 0.813,-9.187 1,-13.75c0.469,-18.281 2.781,-36.468 2.844,-54.781Z" style="fill:#21201a;fill-rule:nonzero;"/>
    <path d="M1967.85,1510c1.093,0.469 3.312,1.344 4.406,1.813c0.187,12.687 -1.063,25.374 -3.219,37.906c-0.969,-6.688 -1.687,-13.407 -2.062,-20.125c0.312,-6.532 0.656,-13.063 0.875,-19.594Z" style="fill:#cfeee4;fill-rule:nonzero;"/>
    <path d="M1973.66,1550.94c41.688,15.124 85.5,22.374 129.031,29.999c15.25,2.375 30.657,3.375 46.063,4.563c54.031,5.187 108.469,-1.406 161.5,-11.781c26.062,-4.844 51.375,-13.063 77.625,-17c1.719,3.593 3.437,7.187 5.187,10.843c-0.468,1.75 -1.437,5.219 -1.937,6.969c-8.844,7 -18.844,12.5 -29.438,16.281c-34.5,12.469 -70.812,18.719 -106.875,24.469c-67.031,10.281 -135.468,2.406 -200.968,-13.406c-26.782,-5.594 -52.407,-15.281 -78.969,-21.5c-0.438,-9.813 -0.875,-19.625 -1.219,-29.438Z" style="fill:#639c93;fill-rule:nonzero;"/>
    <path d="M2393.07,1567.56l1.469,3.093c-0.406,12.031 -1.781,24.031 -2.062,36.094c-6.313,4.312 -13.188,7.75 -20.282,10.437c5.407,-4.906 11.469,-9.75 14.719,-16.468c2.563,-8.5 2.688,-17.5 4.219,-26.188c0.5,-1.75 1.469,-5.218 1.937,-6.968Z" style="fill:#caece3;fill-rule:nonzero;"/>
    <path d="M1980.44,1610.53l3.313,1.063c12.906,4.406 25.719,9.125 38.937,12.625c17.75,5.75 35.688,10.906 54.032,14.437c17.156,3.625 34.562,5.875 52.031,7.25c28.344,2.219 56.781,2.188 85.219,1.594c3.656,1.25 7.187,2.906 10.781,4.531c-35.563,4.282 -71.438,1.157 -106.938,-2.125c-43.062,-3.937 -84.843,-16.187 -125.531,-30.343c-5,-1.469 -8.844,-4.969 -11.844,-9.032Z" style="fill:#231f19;fill-rule:nonzero;"/>
    <path d="M2022.69,1624.22c20.875,-0.407 40.813,6.343 60.844,11.218c-1.687,0.813 -5.094,2.407 -6.812,3.219c-18.344,-3.531 -36.282,-8.687 -54.032,-14.437Z" style="fill:#c1e5dc;fill-rule:nonzero;"/>
    <path d="M2382.7,1651.81c21.969,-7.563 41.532,-21.438 64.688,-25.563c-49.938,30.625 -107.313,47.031 -164.719,56.875c-91.25,14.875 -185.375,7.438 -273.875,-18.812c-14.219,-4.907 -28.719,-9.157 -42.187,-15.938c21.593,0.281 40.937,10.594 61.531,15.625c49.656,12.844 100.781,21.063 152.219,20.094c68.593,1.437 137.937,-8.219 202.343,-32.281Z" style="fill:#271b14;fill-rule:nonzero;"/>
    <path d="M2271.76,1642.25c17.156,-2.5 34.187,-5.687 51.094,-9.469c1.406,0.688 4.218,2.063 5.625,2.75c-18.532,6.844 -38.25,9.032 -57.657,11.906c-15.093,2.126 -30.593,5.001 -45.625,1.094l3.469,-1.531l3.344,-0.281c13.312,-0.907 26.562,-2.532 39.75,-4.469Z" style="fill:#19140f;fill-rule:nonzero;"/>
    <path d="M2128.76,1645.91c9.719,-1.937 19.625,-2.968 29.562,-2.593c24.594,0.843 49.344,-1.063 73.688,3.406l-3.344,0.281c-4.937,0.188 -9.812,0.375 -14.687,0.5c-28.438,0.594 -56.875,0.625 -85.219,-1.594Z" style="fill:#cff5ed;fill-rule:nonzero;"/>
    <path d="M2067.95,1047.72c26.469,-6.282 53.375,-10.719 80.5,-12.844c2.375,1.844 4.782,3.688 7.219,5.563c-56.906,2.906 -114.187,15.249 -164.531,42.562c-8.688,4.688 -18.219,7.375 -27.781,9.438c31.906,-20.813 68.218,-33.938 104.593,-44.719Z" style="fill:#261b14;fill-rule:nonzero;"/>
    <path d="M1812.23,1260.78c-0.125,10.375 -1.563,20.782 -5.469,30.469c-8.625,22.875 -13.594,47 -16,71.281c-6.563,54.219 0.312,111.532 26.875,159.875c3.656,7.313 6.187,15.094 8.844,22.813c-15.625,-18.563 -23.875,-41.782 -32.313,-64.188c-20.75,-72.468 -11.625,-151.562 18.063,-220.25Z" style="fill:#231710;fill-rule:nonzero;"/>
    <path d="M1823.16,1383.81c28.688,24.843 60.125,48.124 96.156,60.999c2.375,28.032 0.813,56.219 3.5,84.219c1.625,-26.312 0.5,-52.687 2.125,-79l-0.031,2.281c-0.719,28.063 0.75,56.157 1.875,84.188c-2.094,11.469 -2.344,23.344 2.563,34.219c0.437,2.343 1.312,7.031 1.75,9.343c-10,-1.968 -18.219,-8.156 -26.282,-14c-36.625,-26 -67.843,-63.75 -76.468,-108.687c0.375,-18.344 -0.688,-36.688 -2.625,-54.938c-1.219,4.532 -2.438,9.063 -3.469,13.688c-1.688,-10.75 -1.156,-21.688 0.906,-32.313Z" style="fill:#f6c635;fill-rule:nonzero;"/>
    <path d="M1822.26,1416.12c1.031,-4.625 2.25,-9.156 3.469,-13.688c1.937,18.251 3,36.594 2.625,54.938c-4.125,-13.344 -5.657,-27.344 -6.094,-41.25Z" style="fill:#f9e261;fill-rule:nonzero;"/>
    <path d="M1835.38,1312.03c4.375,-17.437 10.625,-34.5 19.094,-50.375c-4.25,17.5 -10.344,34.594 -19.094,50.375Z" style="fill:#fadf83;fill-rule:nonzero;"/>
    <path d="M2123.35,1078.66c2.187,0.032 6.593,0.125 8.781,0.188c11.25,0.656 22.531,0.906 33.781,0.25c23.844,-1.563 47.688,3.062 71.5,-0.219c4.125,0.375 8.25,0.938 12.406,1.531c-3.656,0.563 -7.281,1.219 -10.875,1.907c20.188,4.5 40.563,8.625 61.313,9.125c13.344,3.406 26.219,8.343 39.219,12.906c42.5,18.969 84.125,42.219 116.437,76.344c41.75,41.75 69.875,96.156 82.219,153.687c0.312,4.344 -4.375,7.156 -6.656,10.406c-18,17.657 -38.907,32.094 -60.25,45.407c-10.344,5.218 -20.313,11.312 -31.313,15.031c-20.094,-0.875 -40.156,-1.75 -60.25,-1.563c-10.531,-0.281 -21,-1.218 -31.375,-2.968c4.875,-0.469 9.781,-0.969 14.688,-1.563c-7.75,-1.125 -15.5,-2.125 -23.219,-3.031c3.562,-2.469 7.125,-4.938 10.719,-7.438c22.375,-12.593 30.531,-40.406 26.156,-64.562c-2.719,-18.719 -14.781,-38.469 -34.688,-41.969c-20.562,-3.781 -39.375,12.969 -44.343,32.031c-6.375,23.938 -3.907,55.375 19.375,69.5c2,1.094 6.031,3.25 8.062,4.344c-27.5,2.813 -52.406,-13.125 -79.781,-11.125c-1.75,-0.281 -5.281,-0.844 -7.063,-1.094c1.157,-0.937 3.438,-2.812 4.563,-3.75c-13.688,-2.562 -27.656,-2.875 -41.438,-1.281c-11.75,0.688 -23.531,0.469 -35.218,-0.219c-40.688,-6.906 -77.313,19.125 -117.625,18.157c12.625,-8.844 21.312,-21.844 25.687,-36.5c0.719,1.25 2.156,3.718 2.875,4.968c1,-12.875 0.906,-25.781 -0.312,-38.625c-0.844,1.157 -2.469,3.407 -3.313,4.563c-3.812,-12.563 -8.812,-25.781 -19.906,-33.719c-10.219,-8.281 -25.313,-9.312 -36.594,-2.75c-9.062,5.188 -15,14.094 -20.094,22.875c-12.468,18.313 -11.906,45.719 2.844,62.594c6.156,8.594 15.438,14.125 25.063,18.094c0.093,1.531 0.25,4.593 0.312,6.093l-0.656,2.469c-18.469,3.813 -37.906,3.75 -56.781,5.125c-13.469,1.063 -27.532,4.688 -40.625,-0.031c-10.563,-4.094 -20.594,-9.438 -30.5,-14.906c-22.25,-14.282 -44.157,-29.719 -62.657,-48.719c-8.781,-7.469 -1.5,-19.5 1.563,-28.188c8.75,-15.781 14.844,-32.875 19.094,-50.375c15.781,-35.656 43.218,-64.625 71.187,-91.156c26,-24.219 56.438,-43.094 88.25,-58.625c7.938,-3.75 15.875,-7.719 24.5,-9.625c30.875,-5.187 60.375,-16.937 91.875,-18.656c-1.281,-0.906 -3.875,-2.75 -5.156,-3.688l-1.781,-1.25Z" style="fill:#f6c736;fill-rule:nonzero;"/>
    <path d="M2148.45,1034.88c2.125,-0.094 6.438,-0.25 8.563,-0.313c23,5.688 46.844,4.157 70.25,6.594c36.906,3.282 73.937,9.407 108.625,22.782c9.625,3.687 19.781,5.468 29.969,6.75c8.375,2.156 15.656,7.093 23.156,11.25c19.312,11.75 39.281,22.625 57.187,36.593c30.75,23.125 57.313,51.625 79.094,83.313c4.375,7.062 9.75,13.781 12.406,21.781c3.532,20.125 14.782,37.531 21.375,56.656c22.032,61.125 27.344,128.813 11.907,192.125c-4.563,20.875 -16.469,39.188 -20.938,60.125c-15.625,27.688 -39.344,50.282 -64.344,69.657c-12.343,8.593 -24.25,18.468 -38.312,24.062c-23.156,4.125 -42.719,18 -64.688,25.563c-64.406,24.062 -133.75,33.718 -202.343,32.281c-51.438,0.969 -102.563,-7.25 -152.219,-20.094c-20.594,-5.031 -39.938,-15.344 -61.531,-15.625c-37.438,-13.219 -71.688,-35.125 -101.969,-60.781c-13.969,-12.781 -28.688,-25.813 -38.156,-42.375c-2.657,-7.719 -5.188,-15.5 -8.844,-22.813c-26.563,-48.343 -33.438,-105.656 -26.875,-159.875c2.406,-24.281 7.375,-48.406 16,-71.281c3.906,-9.687 5.344,-20.094 5.469,-30.469l0.843,-2.375c22.875,-51.531 58.625,-97.031 102.063,-132.875c15.281,-11.968 30.562,-24.812 48.219,-33.093c9.562,-2.063 19.093,-4.75 27.781,-9.438c50.344,-27.312 107.625,-39.656 164.531,-42.562c-2.437,-1.875 -4.844,-3.719 -7.219,-5.563m-35.312,43.031c2.562,0.188 7.656,0.563 10.219,0.75l1.781,1.25c-29.625,3.719 -59.25,10.563 -86.719,22.344c-8.625,1.906 -16.562,5.875 -24.5,9.625c-31.812,15.531 -62.25,34.406 -88.25,58.625c-27.969,26.531 -55.406,55.5 -71.187,91.156c-8.469,15.875 -14.719,32.938 -19.094,50.375c-3.063,8.688 -10.344,20.719 -1.563,28.188c18.5,19 40.407,34.437 62.657,48.719c17.593,24.125 52.468,24.281 78.937,18.156c-16.094,-2.125 -32.937,2.406 -48.437,-3.25c13.093,4.719 27.156,1.094 40.625,0.031c18.875,-1.375 38.312,-1.312 56.781,-5.125l0.656,-2.469l1.75,1.438c16.063,0.719 31.75,-3.594 47.25,-7.344c30.469,-7.594 60.656,-17 92.063,-19.844c11.687,0.688 23.468,0.907 35.218,0.219c7.875,1.031 15.782,2.031 23.657,3.281c-5.094,0.032 -10.157,0.375 -15.125,1.063c13.75,5.469 28.781,5.469 42.968,9.281c29.344,7.594 58.75,15.063 88.594,20.563c30.063,5.75 60.844,6.031 91.344,6.312c15.344,-2.656 32.625,-8.625 41.312,-22.5l-2.843,1.438c21.343,-13.313 42.25,-27.75 60.25,-45.407c2.281,-3.25 6.968,-6.062 6.656,-10.406c-12.344,-57.531 -40.469,-111.937 -82.219,-153.687c-32.312,-34.125 -73.937,-57.375 -116.437,-76.344l3.343,1.094c-3.25,-4.032 -6.781,-7.969 -11.875,-9.469c-49.062,-17.781 -101.406,-26.656 -153.625,-25.094c-21.437,0.75 -43.812,-0.719 -64.187,7.031m-289.969,305.907c-2.062,10.625 -2.594,21.562 -0.906,32.312c0.437,13.906 1.969,27.906 6.094,41.25c8.625,44.938 39.843,82.688 76.468,108.688c8.063,5.843 16.282,12.031 26.282,14l0.625,3.125c2.843,-11.844 2.687,-24.125 0.968,-36.125c-2.625,-18.688 -2.437,-37.594 -2.25,-56.407c-0.125,-13.968 0.907,-28.437 -4.406,-41.687l-1.125,3.344l0.031,-2.282c-1.406,-1.312 -4.218,-3.906 -5.625,-5.218c-36.031,-12.875 -67.468,-36.157 -96.156,-61m634.594,58.656c-5.375,1.906 -10.719,3.906 -15.938,6.031l-0.281,-1.625l-3.094,-2.344c-4.687,26.157 -0.468,52.844 -3.718,79.125c-1.344,21 -6.125,42.094 -2.813,63.125l0.938,-2.937c2.781,-0.656 5.593,-1.313 8.406,-1.969c9.562,-5.344 18.5,-11.812 26.906,-18.812c27.188,-22.344 54,-48.969 64,-83.688c10.813,-25.219 13.688,-53.437 13.125,-80.656c0.313,-2 0.938,-6 1.25,-8c-29.5,17.437 -57.594,37.312 -88.781,51.75m-424.031,-7.875c-22.688,3.906 -46.063,2.875 -68.469,8.406l3.062,1.125c-0.125,1.313 -0.406,3.906 -0.531,5.219l-1,2.719c-0.906,-1.594 -2.719,-4.782 -3.594,-6.407c-2.718,30.75 -1.812,61.844 0.25,92.594c0.844,-1.594 2.532,-4.781 3.375,-6.406l0.157,-2.25c0.375,6.719 1.093,13.437 2.062,20.125c0.563,18.312 3.344,36.594 3.438,54.969c3.687,2.343 7.375,4.781 11.281,6.906l-3.313,-1.063c3,4.063 6.844,7.563 11.844,9.032c40.688,14.156 82.469,26.406 125.531,30.343c35.5,3.282 71.375,6.407 106.938,2.125c-3.594,-1.625 -7.125,-3.281 -10.781,-4.531c4.875,-0.125 9.75,-0.312 14.687,-0.5l-3.469,1.531c15.032,3.907 30.532,1.032 45.625,-1.093c19.407,-2.875 39.125,-5.063 57.657,-11.907c-1.407,-0.687 -4.219,-2.062 -5.625,-2.75c6.937,-1.687 13.812,-3.718 20.593,-6c9.938,-1.843 19.688,-5.093 28.75,-9.593c7.094,-2.688 13.969,-6.125 20.282,-10.438l-0.094,3.594c3,-5.188 6.344,-10.531 6.562,-16.688c1.313,-18.687 0.282,-37.531 2.938,-56.125c0.687,-11.812 4.5,-25.187 -3.5,-35.406c0.344,-18.781 2.594,-37.75 -1.094,-56.375c-14.344,-1.5 -28.781,-2 -43.187,-2.75l2.5,-0.531c4.187,-0.688 8.281,-1.969 12.437,-3.156c-18.906,-3.407 -38.156,-4.313 -56.844,-8.907c-37.656,-8 -74.5,-20.437 -112.906,-24.406c-57.062,-5 -109.781,22.375 -165.562,28.594Z" style="fill:#332114;fill-rule:nonzero;"/>
    <path d="M2157.01,1034.56c44.281,-1.938 88.719,1.062 132.156,10.156c26.094,6.656 52.625,13.562 76.688,25.968c-10.188,-1.281 -20.344,-3.062 -29.969,-6.75c-34.688,-13.375 -71.719,-19.5 -108.625,-22.781c-23.406,-2.437 -47.25,-0.906 -70.25,-6.594Z" style="fill:#211611;fill-rule:nonzero;"/>
  </g>
  <path d="M 1662.098 1492.841 C 1661.879 1495.653 1649.254 1398.497 1649.035 1365.653 C 1648.754 1342.278 1668.879 1234.934 1670.129 1230.434 C 1670.129 1230.434 1681.316 1177.497 1687.879 1172.247 C 1705.848 1125.434 1727.941 1079.966 1756.848 1038.903 C 1787.566 993.591 1826.16 954.059 1868.191 919.184 C 1921.004 877.372 1982.598 846.809 2047.848 830.059 C 2065.816 825.153 2084.129 821.622 2102.316 817.466 L 2099.16 817.841 C 2113.473 810.216 2130.129 810.809 2145.816 808.747 C 2178.41 804.778 2236.41 812.591 2232.723 813.028 C 2259.348 816.841 2285.91 821.247 2312.129 827.434 C 2312.129 827.434 2340.598 832.184 2355.66 837.278 C 2367.41 841.966 2380.816 844.653 2389.441 854.684 C 2479.691 893.059 2556.598 960.278 2610.66 1041.747 C 2640.504 1083.403 2662.816 1130.059 2680.316 1178.122 C 2688.504 1203.278 2697.285 1228.622 2700.785 1254.934 C 2701.223 1256.466 2711.879 1289.809 2709.035 1304.216 C 2710.941 1320.903 2711.848 1337.684 2713.379 1354.403 L 2713.535 1351.966 C 2715.66 1388.934 2714.566 1426.153 2709.441 1462.841 C 2700.66 1520.466 2686.098 1577.591 2660.879 1630.341 C 2658.379 1644.497 2652.879 1658.716 2641.566 1668.153 C 2615.66 1713.122 2580.441 1752.403 2539.129 1783.747 C 2524.848 1793.81 2510.754 1804.966 2494.254 1811.06 C 2459.191 1832.903 2385.004 1855.685 2386.723 1855.559 C 2370.41 1863.778 2351.16 1868.153 2332.91 1866.309 C 2312.098 1869.622 2291.098 1871.747 2270.191 1874.372 C 2274.91 1874.684 2192.098 1879.716 2145.973 1880.466 C 2120.785 1881.466 2095.785 1878.216 2070.691 1876.716 C 2070.691 1876.716 2039.816 1868.684 2022.816 1864.372 C 1992.973 1861.278 1964.316 1850.934 1936.035 1841.403 C 1873.348 1818.747 1813.973 1782.934 1771.098 1731.153 C 1742.691 1699.466 1721.504 1662.091 1703.691 1623.622 C 1685.785 1581.466 1670.473 1537.966 1662.098 1492.841 Z M 1695.098 1417.029 C 1700.941 1495.248 1719.879 1573.998 1760.098 1641.967 C 1770.441 1663.623 1784.504 1683.904 1800.629 1701.654 C 1814.41 1710.467 1864.691 1761.592 1882.129 1770.123 C 1898.191 1781.154 2041.535 1826.404 2096.816 1832.404 C 2157.66 1838.717 2513.473 1752.279 2528.535 1738.904 C 2538.566 1724.123 2577.754 1688.092 2583.223 1681.154 C 2604.598 1651.842 2642.035 1567.56 2645.098 1558.404 C 2678.473 1455.935 2680.816 1343.748 2653.848 1239.592 C 2648.348 1210.998 2637.566 1183.623 2626.723 1156.685 C 2606.535 1109.967 2581.285 1064.998 2548.129 1026.154 C 2514.035 988.092 2476.629 952.31 2432.941 925.373 C 2392.754 900.717 2349.191 880.654 2303.16 870.06 C 2291.91 869.685 2280.691 868.779 2269.691 866.592 C 2199.004 852.842 2125.254 856.498 2055.785 874.967 C 2034.004 880.342 2013.91 891.029 1991.879 895.435 C 1951.879 910.623 1916.379 935.529 1883.223 962.185 C 1833.41 1003.748 1792.941 1055.654 1761.098 1111.967 C 1745.379 1140.592 1731.004 1170.467 1722.566 1202.06 C 1707.285 1245.935 1698.348 1292.06 1694.941 1338.373 C 1692.566 1364.529 1693.598 1390.842 1695.098 1417.029 Z" style="fill:#332114;"/>
  <path d="M2055.79,874.969c69.469,-18.469 143.219,-22.125 213.906,-8.375c11,2.187 22.219,3.093 33.469,3.468c46.031,10.594 89.594,30.657 129.781,55.313c43.688,26.938 81.094,62.719 115.188,100.781c33.156,38.844 58.406,83.813 78.594,130.532c10.843,26.937 21.625,54.312 27.125,82.906c-0.282,23.281 6.906,45.656 9,68.719c9.375,70.781 6.062,143.468 -11.313,212.843c-4.875,21.625 -14.469,42.094 -16.656,64.313c-11.313,34.562 -30.281,66.375 -51.656,95.687c-5.469,6.938 -10.313,14.532 -17,20.407c-14.938,9.843 -27.657,22.562 -37.688,37.343c-15.062,13.375 -32.031,25.219 -50.062,34.188c-20.563,4.75 -38.657,16.156 -58.594,22.687c-50.125,17.157 -102.406,27.719 -155.156,32.313c-37.344,4.25 -74.969,2.906 -112.469,3.25c-30.938,0.312 -61.563,-4.407 -92.188,-7.907c-40.312,-4.625 -79.625,-15.5 -117.875,-28.781c-20.562,-6.875 -38.968,-19.094 -60.062,-24.531c-17.438,-8.531 -33.188,-20.813 -47.188,-34.188c-8.781,-13.843 -20.531,-25.468 -34.312,-34.281c-16.125,-17.75 -30.188,-38.031 -40.531,-59.687c-5,-19.469 -15.657,-36.657 -22.938,-55.219c-21,-51.563 -32.312,-106.75 -37.344,-162.031c-3.718,-63.125 -1.062,-127.438 17,-188.407c3.344,-11.125 4.907,-22.687 5.75,-34.25c8.438,-31.593 22.813,-61.468 38.532,-90.093c31.843,-56.313 72.312,-108.219 122.125,-149.782c33.156,-26.656 68.656,-51.562 108.656,-66.75c22.031,-4.406 42.125,-15.093 63.906,-20.468m22.063,166.062c-5.313,0.844 -9.688,3.875 -13.532,7.406l3.625,-0.718c-36.375,10.781 -72.687,23.906 -104.593,44.718c-17.657,8.282 -32.938,21.125 -48.219,33.094c-43.438,35.844 -79.188,81.344 -102.063,132.875l0.938,-2.75c-8.531,7.25 -11.875,18.094 -15.219,28.344c-19.75,53.75 -23.781,112.625 -15.469,169.062c2.532,10.844 2.25,23.969 11.719,31.594l-0.875,-3.625c8.438,22.406 16.688,45.625 32.313,64.188c9.468,16.562 24.187,29.593 38.156,42.375c30.281,25.656 64.531,47.562 101.969,60.781c13.468,6.781 27.968,11.031 42.187,15.937l-3.594,-0.937c3.407,4.031 8.094,6.75 13.25,7.906c28.094,6.969 56.25,14.219 85.063,17.656c45.812,7.063 92.344,6 138.469,3.375c16.281,-2.343 33.843,-1 48.718,-9.093c-2,-0.032 -6.031,-0.063 -8.031,-0.094c57.406,-9.844 114.781,-26.25 164.719,-56.875c14.062,-5.594 25.969,-15.469 38.312,-24.063c25,-19.375 48.719,-41.968 64.344,-69.656c6.938,-8.969 12.156,-19.125 16.906,-29.375l-1.062,3.188c3.594,-3.5 7.406,-7.157 8.781,-12.157c13.656,-41.562 18.063,-86.031 13.188,-129.468c-1.344,2.625 -2.532,5.343 -3.594,8.093c-0.813,-11.062 -2.25,-22.031 -3.563,-33.031l1.282,3.125c2.562,-16.75 -3.594,-32.937 -8.125,-48.75c-3.438,-10.156 -5.25,-21.875 -14.344,-28.687l1.094,3.218c-6.875,-15.375 -13.219,-31.187 -22.907,-45.062c-2.656,-8 -8.031,-14.719 -12.406,-21.781c-21.781,-31.688 -48.344,-60.188 -79.094,-83.313c-17.906,-13.969 -37.875,-24.844 -57.187,-36.594c-7.5,-4.156 -14.781,-9.093 -23.156,-11.25c-24.063,-12.406 -50.594,-19.312 -76.688,-25.968c1.938,-0.032 5.813,-0.094 7.75,-0.125c-5.594,-2.688 -11.312,-5.188 -17.406,-6.282c-66.531,-12.031 -135.594,-12.218 -201.656,2.719Z" style="fill:#e1d7c3;fill-rule:nonzero;"/>
</svg>